<?xml version="1.0" encoding="utf-8"?>
<!-- Generator: Adobe Illustrator 17.0.0, SVG Export Plug-In . SVG Version: 6.00 Build 0)  -->
<!DOCTYPE svg PUBLIC "-//W3C//DTD SVG 1.1//EN" "http://www.w3.org/Graphics/SVG/1.1/DTD/svg11.dtd">
<svg version="1.1" id="Camada_1" xmlns="http://www.w3.org/2000/svg" xmlns:xlink="http://www.w3.org/1999/xlink" x="0px" y="0px"
	 width="246.333px" height="77.667px" viewBox="0 0 246.333 77.667" enable-background="new 0 0 246.333 77.667"
	 xml:space="preserve">
<g>
	<g>
		<path d="M244.959,37.87c0,5.299-1.215,10.318-3.643,15.054c-2.43,4.738-6.018,8.893-10.77,12.464
			c-4.75,3.573-10.638,6.404-17.659,8.49c-7.023,2.089-15.073,3.131-24.152,3.131c-5.808,0-11.562-0.621-17.263-1.867
			c-5.702-1.244-11.352-2.909-16.947-4.998c-5.598-2.087-11.141-4.496-16.629-7.226c-5.491-2.729-10.876-5.619-16.155-8.671
			c-5.281,2.971-10.666,5.822-16.154,8.55c-5.491,2.73-11.035,5.139-16.63,7.226c-5.598,2.089-11.22,3.775-16.867,5.058
			c-5.65,1.285-11.378,1.927-17.184,1.927c-8.552,0-16.155-0.963-22.807-2.89s-12.25-4.556-16.788-7.888
			c-4.541-3.331-7.998-7.266-10.374-11.802c-2.375-4.535-3.563-9.494-3.563-14.874c0-5.137,1.212-10.075,3.643-14.813
			c2.428-4.736,6.019-8.87,10.77-12.404c4.751-3.532,10.611-6.362,17.58-8.49c6.968-2.125,15.045-3.189,24.231-3.189
			c5.489,0,11.007,0.602,16.551,1.807c5.543,1.204,11.086,2.851,16.629,4.938c5.543,2.089,11.086,4.498,16.63,7.226
			c5.543,2.73,11.007,5.582,16.392,8.551c5.278-2.89,10.663-5.7,16.154-8.43c5.489-2.729,11.086-5.137,16.788-7.226
			c5.702-2.087,11.456-3.752,17.263-4.998c5.806-1.244,11.666-1.867,17.58-1.867c8.553,0,16.127,0.945,22.728,2.83
			c6.597,1.887,12.168,4.498,16.709,7.828c4.537,3.333,7.998,7.267,10.373,11.802C243.771,27.655,244.959,32.572,244.959,37.87z
			 M97.193,38.954c-3.697-2.087-7.365-4.074-11.007-5.961c-3.643-1.885-7.154-3.553-10.532-4.998
			c-3.38-1.445-6.707-2.569-9.978-3.372c-3.274-0.802-6.493-1.205-9.661-1.205c-3.381,0-6.39,0.361-9.028,1.084
			c-2.641,0.723-4.885,1.767-6.731,3.131c-1.849,1.366-3.247,2.992-4.197,4.877c-0.95,1.887-1.425,3.955-1.425,6.202
			c0,4.898,1.821,8.731,5.464,11.501s9,4.155,16.076,4.155c2.955,0,6.018-0.4,9.186-1.204c3.167-0.802,6.493-1.906,9.978-3.312
			c3.484-1.404,7.048-3.029,10.69-4.877C89.67,43.13,93.392,41.122,97.193,38.954z M211.7,38.834c0-2.488-0.53-4.697-1.584-6.624
			c-1.057-1.927-2.509-3.553-4.355-4.877c-1.849-1.325-4.118-2.307-6.81-2.95c-2.692-0.642-5.677-0.964-8.948-0.964
			c-3.168,0-6.362,0.403-9.582,1.205c-3.222,0.803-6.573,1.867-10.057,3.191s-7.048,2.932-10.69,4.817
			c-3.643,1.888-7.419,3.875-11.324,5.961c4.012,2.168,7.84,4.196,11.482,6.082c3.643,1.887,7.207,3.553,10.691,4.998
			s6.862,2.589,10.136,3.433c3.271,0.843,6.439,1.264,9.502,1.264c3.484,0,6.545-0.4,9.186-1.204
			c2.638-0.802,4.882-1.886,6.731-3.251c1.846-1.364,3.247-2.97,4.197-4.817C211.225,43.25,211.7,41.164,211.7,38.834z"/>
	</g>
	<g>
		
			<linearGradient id="SVGID_1_" gradientUnits="userSpaceOnUse" x1="89.8065" y1="1527.1638" x2="89.8065" y2="1603.5149" gradientTransform="matrix(1 0 0 1 33.36 -1526.5059)">
			<stop  offset="0" style="stop-color:#E0E0DF"/>
			<stop  offset="0.1077" style="stop-color:#DEDEDD"/>
			<stop  offset="0.2696" style="stop-color:#D3D3D4"/>
			<stop  offset="0.4657" style="stop-color:#BFBEC1"/>
			<stop  offset="0.6885" style="stop-color:#A1A0A4"/>
			<stop  offset="0.9309" style="stop-color:#7A797D"/>
			<stop  offset="1" style="stop-color:#6B6A6F"/>
		</linearGradient>
		<path fill="url(#SVGID_1_)" d="M244.959,37.87c0,5.299-1.215,10.318-3.643,15.054c-2.43,4.738-6.018,8.893-10.77,12.464
			c-4.75,3.573-10.638,6.404-17.659,8.49c-7.023,2.089-15.073,3.131-24.152,3.131c-5.808,0-11.562-0.621-17.263-1.867
			c-5.702-1.244-11.352-2.909-16.947-4.998c-5.598-2.087-11.141-4.496-16.629-7.226c-5.491-2.729-10.876-5.619-16.155-8.671
			c-5.281,2.971-10.666,5.822-16.154,8.55c-5.491,2.73-11.035,5.139-16.63,7.226c-5.598,2.089-11.22,3.775-16.867,5.058
			c-5.65,1.285-11.378,1.927-17.184,1.927c-8.552,0-16.155-0.963-22.807-2.89s-12.25-4.556-16.788-7.888
			c-4.541-3.331-7.998-7.266-10.374-11.802c-2.375-4.535-3.563-9.494-3.563-14.874c0-5.137,1.212-10.075,3.643-14.813
			c2.428-4.736,6.019-8.87,10.77-12.404c4.751-3.532,10.611-6.362,17.58-8.49c6.968-2.125,15.045-3.189,24.231-3.189
			c5.489,0,11.007,0.602,16.551,1.807c5.543,1.204,11.086,2.851,16.629,4.938c5.543,2.089,11.086,4.498,16.63,7.226
			c5.543,2.73,11.007,5.582,16.392,8.551c5.278-2.89,10.663-5.7,16.154-8.43c5.489-2.729,11.086-5.137,16.788-7.226
			c5.702-2.087,11.456-3.752,17.263-4.998c5.806-1.244,11.666-1.867,17.58-1.867c8.553,0,16.127,0.945,22.728,2.83
			c6.597,1.887,12.168,4.498,16.709,7.828c4.537,3.333,7.998,7.267,10.373,11.802C243.771,27.655,244.959,32.572,244.959,37.87z
			 M97.193,38.954c-3.697-2.087-7.365-4.074-11.007-5.961c-3.643-1.885-7.154-3.553-10.532-4.998
			c-3.38-1.445-6.707-2.569-9.978-3.372c-3.274-0.802-6.493-1.205-9.661-1.205c-3.381,0-6.39,0.361-9.028,1.084
			c-2.641,0.723-4.885,1.767-6.731,3.131c-1.849,1.366-3.247,2.992-4.197,4.877c-0.95,1.887-1.425,3.955-1.425,6.202
			c0,4.898,1.821,8.731,5.464,11.501s9,4.155,16.076,4.155c2.955,0,6.018-0.4,9.186-1.204c3.167-0.802,6.493-1.906,9.978-3.312
			c3.484-1.404,7.048-3.029,10.69-4.877C89.67,43.13,93.392,41.122,97.193,38.954z M211.7,38.834c0-2.488-0.53-4.697-1.584-6.624
			c-1.057-1.927-2.509-3.553-4.355-4.877c-1.849-1.325-4.118-2.307-6.81-2.95c-2.692-0.642-5.677-0.964-8.948-0.964
			c-3.168,0-6.362,0.403-9.582,1.205c-3.222,0.803-6.573,1.867-10.057,3.191s-7.048,2.932-10.69,4.817
			c-3.643,1.888-7.419,3.875-11.324,5.961c4.012,2.168,7.84,4.196,11.482,6.082c3.643,1.887,7.207,3.553,10.691,4.998
			s6.862,2.589,10.136,3.433c3.271,0.843,6.439,1.264,9.502,1.264c3.484,0,6.545-0.4,9.186-1.204
			c2.638-0.802,4.882-1.886,6.731-3.251c1.846-1.364,3.247-2.97,4.197-4.817C211.225,43.25,211.7,41.164,211.7,38.834z"/>
	</g>
	<g>
		<path fill="none" stroke="#000000" stroke-width="0.5" stroke-miterlimit="10" d="M244.959,37.87
			c0,5.299-1.215,10.318-3.643,15.054c-2.43,4.738-6.018,8.893-10.77,12.464c-4.75,3.573-10.638,6.404-17.659,8.49
			c-7.023,2.089-15.073,3.131-24.152,3.131c-5.808,0-11.562-0.621-17.263-1.867c-5.702-1.244-11.352-2.909-16.947-4.998
			c-5.598-2.087-11.141-4.496-16.629-7.226c-5.491-2.729-10.876-5.619-16.155-8.671c-5.281,2.971-10.666,5.822-16.154,8.55
			c-5.491,2.73-11.035,5.139-16.63,7.226c-5.598,2.089-11.22,3.775-16.867,5.058c-5.65,1.285-11.378,1.927-17.184,1.927
			c-8.552,0-16.155-0.963-22.807-2.89s-12.25-4.556-16.788-7.888c-4.541-3.331-7.998-7.266-10.374-11.802
			c-2.375-4.535-3.563-9.494-3.563-14.874c0-5.137,1.212-10.075,3.643-14.813c2.428-4.736,6.019-8.87,10.77-12.404
			c4.751-3.532,10.611-6.362,17.58-8.49c6.968-2.125,15.045-3.189,24.231-3.189c5.489,0,11.007,0.602,16.551,1.807
			c5.543,1.204,11.086,2.851,16.629,4.938c5.543,2.089,11.086,4.498,16.63,7.226c5.543,2.73,11.007,5.582,16.392,8.551
			c5.278-2.89,10.663-5.7,16.154-8.43c5.489-2.729,11.086-5.137,16.788-7.226c5.702-2.087,11.456-3.752,17.263-4.998
			c5.806-1.244,11.666-1.867,17.58-1.867c8.553,0,16.127,0.945,22.728,2.83c6.597,1.887,12.168,4.498,16.709,7.828
			c4.537,3.333,7.998,7.267,10.373,11.802C243.771,27.655,244.959,32.572,244.959,37.87z M97.193,38.954
			c-3.697-2.087-7.365-4.074-11.007-5.961c-3.643-1.885-7.154-3.553-10.532-4.998c-3.38-1.445-6.707-2.569-9.978-3.372
			c-3.274-0.802-6.493-1.205-9.661-1.205c-3.381,0-6.39,0.361-9.028,1.084c-2.641,0.723-4.885,1.767-6.731,3.131
			c-1.849,1.366-3.247,2.992-4.197,4.877c-0.95,1.887-1.425,3.955-1.425,6.202c0,4.898,1.821,8.731,5.464,11.501
			s9,4.155,16.076,4.155c2.955,0,6.018-0.4,9.186-1.204c3.167-0.802,6.493-1.906,9.978-3.312c3.484-1.404,7.048-3.029,10.69-4.877
			C89.67,43.13,93.392,41.122,97.193,38.954z M211.7,38.834c0-2.488-0.53-4.697-1.584-6.624c-1.057-1.927-2.509-3.553-4.355-4.877
			c-1.849-1.325-4.118-2.307-6.81-2.95c-2.692-0.642-5.677-0.964-8.948-0.964c-3.168,0-6.362,0.403-9.582,1.205
			c-3.222,0.803-6.573,1.867-10.057,3.191s-7.048,2.932-10.69,4.817c-3.643,1.888-7.419,3.875-11.324,5.961
			c4.012,2.168,7.84,4.196,11.482,6.082c3.643,1.887,7.207,3.553,10.691,4.998s6.862,2.589,10.136,3.433
			c3.271,0.843,6.439,1.264,9.502,1.264c3.484,0,6.545-0.4,9.186-1.204c2.638-0.802,4.882-1.886,6.731-3.251
			c1.846-1.364,3.247-2.97,4.197-4.817C211.225,43.25,211.7,41.164,211.7,38.834z"/>
	</g>
</g>
<g>
	<path fill="#C23235" d="M56.504,13.059h5.804l0.084-0.067l1.03,1.051c-0.047,0.067-0.092,0.133-0.167,0.187
		c-0.826,4.975-2.404,7.384-5.246,8.98c-0.167-0.425-0.511-1.051-0.743-1.397c2.516-1.344,4.087-3.658,4.569-7.131h-5.33
		C56.504,14.681,56.504,13.059,56.504,13.059z M63.617,10.838c0.557,0,1.003,0.639,1.003,1.436c0,0.785-0.446,1.436-1.003,1.436
		c-0.548,0-1.003-0.652-1.003-1.436C62.613,11.45,63.087,10.838,63.617,10.838z M64.266,12.275c0-0.519-0.288-0.932-0.65-0.932
		c-0.352,0-0.65,0.412-0.65,0.932c0,0.519,0.297,0.931,0.65,0.931C63.997,13.205,64.266,12.767,64.266,12.275z"/>
	<path fill="#C23235" d="M72.131,13.286v8.967h-1.189v-0.758h-4.3v0.786h-1.161v-8.995H72.131z M70.933,19.938v-5.096h-4.29v5.096
		H70.933z"/>
	<path fill="#C23235" d="M73.978,19.591c1.931,0.333,4.188,1.038,5.767,1.863l-0.52,1.703c-1.365-0.772-3.752-1.664-5.711-2.022
		L73.978,19.591z M74.656,11.743c1.569,0.226,3.714,0.825,4.931,1.477l-0.492,1.689c-1.319-0.758-3.268-1.317-4.847-1.583
		L74.656,11.743z M74.675,15.694c1.393,0.186,3.315,0.798,4.439,1.37l-0.39,1.676c-1.04-0.612-2.963-1.237-4.439-1.477
		L74.675,15.694z"/>
	<path fill="#C23235" d="M81.945,15.042c0.26,0.798,0.538,2.022,0.66,2.82l-0.901,0.359c-0.121-0.825-0.371-1.996-0.631-2.821
		L81.945,15.042z M87.35,15.348c-0.027,0.107-0.111,0.186-0.232,0.174c-0.762,3.924-2.201,6.239-4.318,7.463
		c-0.121-0.266-0.417-0.798-0.631-1.051c1.987-1.064,3.38-3.179,4.002-7.131L87.35,15.348z M84.164,14.483
		c0.195,0.812,0.371,2.089,0.446,2.927l-0.947,0.279c-0.074-0.878-0.26-2.089-0.455-2.94L84.164,14.483z"/>
	<path fill="#C23235" d="M95.187,14.27c-0.037,0.107-0.13,0.186-0.204,0.253c-1.049,4.351-2.498,6.972-5.005,8.781
		c-0.195-0.373-0.538-0.945-0.873-1.277c2.322-1.557,3.677-3.898,4.374-6.878h-2.73c-0.464,1.011-1.216,2.182-1.978,3.046
		c-0.223-0.32-0.641-0.811-0.956-1.091c1.207-1.318,2.349-3.419,2.916-5.641l1.477,0.492c-0.037,0.16-0.158,0.24-0.306,0.24
		c-0.148,0.479-0.334,0.945-0.492,1.384h2.647l0.167-0.12L95.187,14.27z"/>
	<path fill="#C23235" d="M102.068,13.02c-0.028,0.107-0.092,0.186-0.167,0.226c-0.52,1.717-1.003,2.954-1.737,4.404
		c0.91,1.064,2.275,2.833,3.101,4.097l-1.03,1.303c-0.724-1.237-2.052-3.14-2.832-4.085c-0.873,1.411-2.08,3.033-3.287,4.072
		c-0.186-0.359-0.594-0.971-0.863-1.277c2.312-1.796,4.197-4.989,5.033-7.77h-4.188v-1.597h4.856l0.196-0.092L102.068,13.02z"/>
</g>
<g>
	<g enable-background="new    ">
		<path fill="none" stroke="#000000" stroke-width="2" stroke-miterlimit="10" d="M7.036,52.356
			c-0.237-0.435-0.323-0.858-0.261-1.271s0.247-0.952,0.552-1.62s0.723-1.504,1.25-2.51l1.834-3.375l2.251-4.007l2.542-4.321
			l2.668-4.321c-3.349,0.9-5.906,1.973-7.67,3.218c-0.292,0.21-0.542,0.428-0.75,0.653l-0.708,0.765
			c-0.431,0.465-0.854,0.698-1.271,0.698s-0.74-0.056-0.969-0.169c-0.229-0.112-0.414-0.259-0.552-0.439
			c-0.348-0.435-0.41-0.915-0.188-1.44c0.597-2.07,1.452-4.186,2.563-6.346c0.611-1.2,1.098-1.891,1.459-2.071
			c2.64-1.23,8.142-2.123,16.507-2.678c2.723-0.18,5.586-0.27,8.587-0.27c1.959,0,3.821,0.758,5.586,2.273
			c1.973,1.726,2.959,3.886,2.959,6.482c0,3.391-2.696,6.602-8.087,9.632c-2.987,1.696-5.794,2.881-8.42,3.557
			c-0.681,0.165-1.206,0.248-1.574,0.248c-0.369,0-0.785-0.053-1.25-0.158c-0.466-0.105-0.886-0.255-1.261-0.45
			c-0.889-0.479-1.334-1.058-1.334-1.733c0-0.959,0.854-1.936,2.564-2.926l4.481-2.61c2.654-1.53,4.293-2.64,4.919-3.331
			c0.625-0.69,0.938-1.256,0.938-1.699c0-0.442-0.081-0.852-0.24-1.227c-0.16-0.375-0.379-0.712-0.657-1.013
			c-0.598-0.645-1.237-0.968-1.917-0.968c-1.417,0-3.126,0.12-5.127,0.36l-2.542,4.839c-3.251,6.377-5.461,12.107-6.628,17.194
			c-0.473,1.98-2.258,2.971-5.356,2.971C9.377,54.292,7.745,53.646,7.036,52.356z"/>
		<path fill="none" stroke="#000000" stroke-width="2" stroke-miterlimit="10" d="M40.884,46.325c-0.264,0-0.524-0.067-0.782-0.202
			c-0.257-0.136-0.497-0.354-0.719-0.653c-0.486-0.659-0.729-1.56-0.729-2.7c0-1.216,0.674-2.73,2.021-4.546
			c1.306-1.755,2.828-3.271,4.564-4.546c1.862-1.38,3.46-2.07,4.794-2.07c1.181,0,1.98,0.36,2.397,1.08l0.292,0.495
			c0.222,0.375,0.445,0.563,0.667,0.563s0.57-0.023,1.042-0.068l2.959-0.225c0.458-0.045,0.82-0.067,1.083-0.067
			c0.264,0,0.566,0.102,0.907,0.304c0.34,0.203,0.643,0.469,0.907,0.799c0.583,0.75,0.875,1.575,0.875,2.476
			c0,0.93-0.952,2.393-2.855,4.389l-1.375,1.485c-0.987,1.095-1.48,1.786-1.48,2.07c0,0.285,0.125,0.536,0.375,0.754
			c0.25,0.218,0.521,0.326,0.813,0.326s0.622-0.086,0.99-0.259c0.368-0.172,0.823-0.428,1.365-0.766
			c0.542-0.337,1.16-0.746,1.855-1.227c1.903-1.35,3.175-2.279,3.814-2.79l1.73-1.328c1.181-0.9,2.021-1.35,2.522-1.35
			c0.5,0,0.91,0.116,1.229,0.349c0.32,0.233,0.479,0.634,0.479,1.204s-0.271,1.336-0.813,2.297
			c-0.542,0.959-1.129,1.793-1.761,2.498s-1.247,1.357-1.844,1.957c-0.598,0.601-1.303,1.25-2.116,1.947s-1.712,1.402-2.699,2.115
			c-0.986,0.713-2.029,1.354-3.126,1.924c-2.488,1.306-4.773,1.959-6.857,1.959c-3.043,0-4.898-0.848-5.565-2.543
			c-0.208-0.51-0.313-1.081-0.313-1.711c0-0.631,0.111-1.309,0.333-2.037s0.514-1.451,0.875-2.172
			c0.722-1.425,1.577-2.686,2.563-3.781c0.833-0.945,1.25-1.508,1.25-1.688c0-0.285-0.149-0.465-0.448-0.54s-0.74-0.112-1.323-0.112
			c-0.25,0-0.785,0.391-1.605,1.17l-2.042,2.025C42.969,45.259,41.551,46.325,40.884,46.325z"/>
		<path fill="none" stroke="#000000" stroke-width="2" stroke-miterlimit="10" d="M88.905,39.888c0,0.811,0.639,1.215,1.917,1.215
			c0.944,0,2.181-0.494,3.71-1.485l1.667-0.99c0.514-0.315,0.962-0.472,1.345-0.472c0.382,0,0.684,0.127,0.906,0.382
			s0.333,0.608,0.333,1.058c0,0.45-0.139,0.972-0.417,1.564c-0.278,0.593-0.66,1.215-1.146,1.867
			c-0.486,0.653-1.056,1.299-1.709,1.936c-0.653,0.639-1.355,1.213-2.105,1.723c-1.667,1.125-3.217,1.688-4.648,1.688
			c-1.515,0-2.724-0.277-3.627-0.832c-0.278-0.181-0.549-0.368-0.813-0.563c-1.487,1.831-3.641,3.511-6.461,5.042
			c-3.001,1.62-5.621,2.43-7.857,2.43c-2.349,0-4.203-0.997-5.565-2.992c-1.098-1.621-1.646-3.264-1.646-4.93
			c0-2.4,1.188-4.688,3.564-6.863c1.75-1.591,3.442-2.799,5.075-3.624c1.632-0.825,3.109-1.463,4.429-1.913
			c2.793-0.945,5.308-1.418,7.545-1.418c1,0,1.893,0.207,2.678,0.619c0.785,0.413,1.365,0.829,1.74,1.249
			c0.889,0.945,1.334,2.153,1.334,3.624c0,0.435-0.042,0.773-0.125,1.013C88.947,39.453,88.905,39.678,88.905,39.888z
			 M71.856,44.142l-0.021,0.066v0.023c0,0.645,0.132,1.064,0.396,1.26c0.639,0.42,1.313,0.529,2.022,0.326
			c0.708-0.202,1.382-0.453,2.021-0.754c1.584-0.734,3.015-1.665,4.293-2.791c-0.222-0.479-0.333-0.975-0.333-1.484
			c0-1.08,0.438-2.161,1.313-3.241c-1.112,0-2.613,0.563-4.502,1.688c-2.084,1.246-3.647,2.528-4.69,3.848
			C72.022,43.534,71.856,43.886,71.856,44.142z"/>
		<path fill="none" stroke="#000000" stroke-width="2" stroke-miterlimit="10" d="M107.267,47c-0.487,0-0.729-0.307-0.729-0.922
			c0-0.586,0.156-1.178,0.469-1.778s0.608-1.024,0.886-1.272c0.278-0.247,0.577-0.469,0.896-0.663
			c0.694-0.39,1.306-0.585,1.834-0.585h12.068c0.222,0,0.43,0.086,0.625,0.258c0.194,0.174,0.292,0.41,0.292,0.709
			c0,0.602-0.185,1.234-0.552,1.902c-0.369,0.668-0.806,1.23-1.313,1.688c-0.508,0.458-1.025,0.688-1.553,0.688L107.267,47z"/>
		<path fill="none" stroke="#000000" stroke-width="2" stroke-miterlimit="10" d="M168.148,48.283l0.042-1.53
			c0.027-0.96,0.111-2.011,0.25-3.151l0.334-2.655c0.069-0.63,0.139-1.2,0.208-1.71c-1.32,1.561-2.383,2.776-3.188,3.646
			l-2.397,2.521c-5.363,5.416-8.56,8.125-9.587,8.125c-1.515,0-3.105-0.354-4.773-1.059c-0.903-0.39-1.417-0.795-1.542-1.215
			c-0.195-0.525-0.292-1.241-0.292-2.149c0-0.907,0.027-1.744,0.083-2.509c0.056-0.766,0.125-1.527,0.209-2.285
			c0.083-0.758,0.17-1.484,0.261-2.183c0.09-0.698,0.163-1.31,0.219-1.835c0.139-1.185,0.166-1.777,0.083-1.777L140.303,48.8
			c-3.655,4.637-5.732,7.201-6.232,7.697c-1.07,1.05-2.251,1.575-3.543,1.575c-0.64,0-1.167-0.173-1.584-0.519
			c-0.417-0.345-0.626-0.771-0.626-1.282c0-1.021,0.396-2.085,1.188-3.196l18.508-25.408l2.168-2.813
			c2.584-3.286,4.279-4.929,5.086-4.929c1.125,0,2.195,0.308,3.209,0.923c0.903,0.54,1.418,1.065,1.543,1.575
			c0.055,0.195-0.063,1.103-0.354,2.724l-0.729,4.253c-0.82,4.741-1.229,7.798-1.229,9.171c0,1.374,0.146,2.059,0.438,2.059
			c0.944,0,2.765-1.672,5.461-5.019l6.753-8.732c1.486-1.846,2.473-2.896,2.959-3.151c0.139-0.075,0.341-0.113,0.604-0.113
			s0.56,0.038,0.886,0.113c0.327,0.075,0.66,0.172,1.001,0.292c0.34,0.12,0.67,0.263,0.99,0.428
			c0.319,0.165,0.604,0.337,0.854,0.518c0.542,0.39,0.809,0.709,0.802,0.957s-0.065,0.78-0.177,1.598
			c-0.111,0.818-0.25,1.812-0.417,2.982c-1.153,7.757-1.754,12.258-1.803,13.503s0.069,2.026,0.354,2.341
			c0.284,0.314,0.705,0.473,1.261,0.473c1.014,0,2.487-0.652,4.419-1.958c1.306-0.886,2.386-1.328,3.24-1.328
			s1.282,0.442,1.282,1.328c0,0.915-0.459,2.025-1.376,3.331c-1.32,1.891-3.293,3.601-5.919,5.131
			c-2.209,1.275-4.308,1.913-6.294,1.913C169.774,55.237,168.148,52.919,168.148,48.283z"/>
		<path fill="none" stroke="#000000" stroke-width="2" stroke-miterlimit="10" d="M200.121,52.502
			c-1.057,0.593-2.085,1.065-3.085,1.418s-1.983,0.528-2.949,0.528s-1.967-0.251-3.001-0.754c-1.035-0.502-1.956-1.174-2.762-2.014
			c-1.793-1.875-2.688-3.961-2.688-6.257c0-2.116,0.583-4.261,1.75-6.437c1.07-1.965,2.432-3.616,4.085-4.951
			c1.654-1.335,3.189-2.003,4.606-2.003c2.028,0,3.112,0.615,3.252,1.845c0.041,0.375,0.063,0.81,0.063,1.305
			s-0.108,1.062-0.323,1.699c-0.216,0.638-0.493,1.275-0.834,1.913c-0.341,0.639-0.716,1.26-1.125,1.868
			c-0.41,0.607-0.803,1.159-1.178,1.653c-0.723,0.945-1.3,1.629-1.73,2.049c0,0.51,0.354,1.035,1.063,1.575
			c0.667,0.511,1.232,0.765,1.698,0.765s1.015-0.119,1.646-0.359c0.633-0.24,1.285-0.563,1.96-0.968
			c0.674-0.405,1.361-0.87,2.063-1.396c0.701-0.525,1.393-1.064,2.073-1.62l3.814-3.218c1.514-1.185,2.744-1.778,3.688-1.778
			c0.376,0,0.664,0.146,0.865,0.439s0.303,0.634,0.303,1.024c0,0.391-0.181,0.927-0.542,1.609c-0.361,0.684-0.858,1.438-1.49,2.262
			c-0.633,0.826-1.373,1.688-2.22,2.589c-0.848,0.899-1.765,1.786-2.751,2.655c-0.987,0.871-2.012,1.699-3.075,2.486
			C202.236,51.22,201.176,51.91,200.121,52.502z M205.373,27.724c-0.403,0.368-0.841,0.668-1.313,0.9s-1,0.349-1.584,0.349
			c-0.583,0-1.146-0.104-1.688-0.315c-0.542-0.21-1.015-0.502-1.418-0.878c-0.875-0.81-1.313-1.845-1.313-3.105
			c0-1.936,1.5-3.376,4.502-4.321c1.014-0.33,1.848-0.495,2.501-0.495s1.143,0.079,1.47,0.236c0.326,0.158,0.594,0.364,0.802,0.619
			c0.417,0.51,0.626,1.032,0.626,1.564c0,0.533-0.06,1.017-0.178,1.452s-0.288,0.885-0.511,1.35s-0.493,0.931-0.813,1.396
			C206.136,26.94,205.776,27.356,205.373,27.724z"/>
		<path fill="none" stroke="#000000" stroke-width="2" stroke-miterlimit="10" d="M225.986,43.759
			c1.001,1.71,2.063,2.565,3.189,2.565c1.139,0,3.285-1.126,6.439-3.376l2.272-1.666c0.681-0.524,1.25-0.979,1.709-1.361
			c0.458-0.383,0.854-0.708,1.188-0.979c0.751-0.63,1.612-0.945,2.585-0.945c0.306,0,0.601,0.098,0.886,0.292
			c0.284,0.195,0.428,0.461,0.428,0.799s-0.046,0.675-0.136,1.012c-0.091,0.338-0.227,0.688-0.406,1.047
			c-0.39,0.855-0.761,1.501-1.115,1.936c-0.354,0.436-0.733,0.871-1.136,1.306s-0.894,0.938-1.47,1.508
			c-0.577,0.57-1.237,1.189-1.98,1.856c-0.743,0.668-1.539,1.332-2.386,1.992c-0.848,0.66-1.74,1.298-2.679,1.912
			c-0.938,0.616-1.9,1.156-2.887,1.621c-2.195,1.035-4.168,1.553-5.919,1.553c-1.932,0-3.516-1.14-4.752-3.421
			c-0.362-0.675-0.695-1.38-1.001-2.115l-6.461,4.996c-1.028,0.87-1.952,1.306-2.772,1.306c-0.444,0-0.826-0.135-1.146-0.405
			c-0.611-0.511-0.918-1.058-0.918-1.644c0-0.584,0.102-1.023,0.303-1.316c0.201-0.292,0.462-0.588,0.781-0.889l8.212-7.629
			c-0.625-1.576-1.258-2.363-1.896-2.363c-0.931,0-1.876,0.42-2.834,1.26l-0.918,0.788c-1.306,1.155-2.466,1.733-3.48,1.733
			c-0.402,0-0.771-0.136-1.104-0.406c-0.653-0.524-0.979-1.132-0.979-1.822c0-0.689,0.702-1.666,2.105-2.926l0.813-0.743
			c0.361-0.36,0.729-0.712,1.104-1.058l4.272-3.759c2.057-1.725,3.745-2.588,5.065-2.588c1.152,0,2.278,1.208,3.376,3.624
			c0.319,0.705,0.639,1.448,0.959,2.228l3.835-3.556c2.223-2.025,3.891-3.038,5.002-3.038c0.848,0,1.626,0.27,2.335,0.81
			c1.319,1.005,1.979,1.966,1.979,2.881c0,0.57-0.223,0.998-0.667,1.283c-0.083,0.045-0.229,0.15-0.438,0.315l-4.71,3.781
			L225.986,43.759z"/>
	</g>
	<g enable-background="new    ">
		<path fill="#C23235" d="M7.036,52.356c-0.237-0.435-0.323-0.858-0.261-1.271s0.247-0.952,0.552-1.62s0.723-1.504,1.25-2.51
			l1.834-3.375l2.251-4.007l2.542-4.321l2.668-4.321c-3.349,0.9-5.906,1.973-7.67,3.218c-0.292,0.21-0.542,0.428-0.75,0.653
			l-0.708,0.765c-0.431,0.465-0.854,0.698-1.271,0.698s-0.74-0.056-0.969-0.169c-0.229-0.112-0.414-0.259-0.552-0.439
			c-0.348-0.435-0.41-0.915-0.188-1.44c0.597-2.07,1.452-4.186,2.563-6.346c0.611-1.2,1.098-1.891,1.459-2.071
			c2.64-1.23,8.142-2.123,16.507-2.678c2.723-0.18,5.586-0.27,8.587-0.27c1.959,0,3.821,0.758,5.586,2.273
			c1.973,1.726,2.959,3.886,2.959,6.482c0,3.391-2.696,6.602-8.087,9.632c-2.987,1.696-5.794,2.881-8.42,3.557
			c-0.681,0.165-1.206,0.248-1.574,0.248c-0.369,0-0.785-0.053-1.25-0.158c-0.466-0.105-0.886-0.255-1.261-0.45
			c-0.889-0.479-1.334-1.058-1.334-1.733c0-0.959,0.854-1.936,2.564-2.926l4.481-2.61c2.654-1.53,4.293-2.64,4.919-3.331
			c0.625-0.69,0.938-1.256,0.938-1.699c0-0.442-0.081-0.852-0.24-1.227c-0.16-0.375-0.379-0.712-0.657-1.013
			c-0.598-0.645-1.237-0.968-1.917-0.968c-1.417,0-3.126,0.12-5.127,0.36l-2.542,4.839c-3.251,6.377-5.461,12.107-6.628,17.194
			c-0.473,1.98-2.258,2.971-5.356,2.971C9.377,54.292,7.745,53.646,7.036,52.356z"/>
		<path fill="#C23235" d="M40.884,46.325c-0.264,0-0.524-0.067-0.782-0.202c-0.257-0.136-0.497-0.354-0.719-0.653
			c-0.486-0.659-0.729-1.56-0.729-2.7c0-1.216,0.674-2.73,2.021-4.546c1.306-1.755,2.828-3.271,4.564-4.546
			c1.862-1.38,3.46-2.07,4.794-2.07c1.181,0,1.98,0.36,2.397,1.08l0.292,0.495c0.222,0.375,0.445,0.563,0.667,0.563
			s0.57-0.023,1.042-0.068l2.959-0.225c0.458-0.045,0.82-0.067,1.083-0.067c0.264,0,0.566,0.102,0.907,0.304
			c0.34,0.203,0.643,0.469,0.907,0.799c0.583,0.75,0.875,1.575,0.875,2.476c0,0.93-0.952,2.393-2.855,4.389l-1.375,1.485
			c-0.987,1.095-1.48,1.786-1.48,2.07c0,0.285,0.125,0.536,0.375,0.754c0.25,0.218,0.521,0.326,0.813,0.326s0.622-0.086,0.99-0.259
			c0.368-0.172,0.823-0.428,1.365-0.766c0.542-0.337,1.16-0.746,1.855-1.227c1.903-1.35,3.175-2.279,3.814-2.79l1.73-1.328
			c1.181-0.9,2.021-1.35,2.522-1.35c0.5,0,0.91,0.116,1.229,0.349c0.32,0.233,0.479,0.634,0.479,1.204s-0.271,1.336-0.813,2.297
			c-0.542,0.959-1.129,1.793-1.761,2.498s-1.247,1.357-1.844,1.957c-0.598,0.601-1.303,1.25-2.116,1.947s-1.712,1.402-2.699,2.115
			c-0.986,0.713-2.029,1.354-3.126,1.924c-2.488,1.306-4.773,1.959-6.857,1.959c-3.043,0-4.898-0.848-5.565-2.543
			c-0.208-0.51-0.313-1.081-0.313-1.711c0-0.631,0.111-1.309,0.333-2.037s0.514-1.451,0.875-2.172
			c0.722-1.425,1.577-2.686,2.563-3.781c0.833-0.945,1.25-1.508,1.25-1.688c0-0.285-0.149-0.465-0.448-0.54s-0.74-0.112-1.323-0.112
			c-0.25,0-0.785,0.391-1.605,1.17l-2.042,2.025C42.969,45.259,41.551,46.325,40.884,46.325z"/>
		<path fill="#C23235" d="M88.905,39.888c0,0.811,0.639,1.215,1.917,1.215c0.944,0,2.181-0.494,3.71-1.485l1.667-0.99
			c0.514-0.315,0.962-0.472,1.345-0.472c0.382,0,0.684,0.127,0.906,0.382s0.333,0.608,0.333,1.058c0,0.45-0.139,0.972-0.417,1.564
			c-0.278,0.593-0.66,1.215-1.146,1.867c-0.486,0.653-1.056,1.299-1.709,1.936c-0.653,0.639-1.355,1.213-2.105,1.723
			c-1.667,1.125-3.217,1.688-4.648,1.688c-1.515,0-2.724-0.277-3.627-0.832c-0.278-0.181-0.549-0.368-0.813-0.563
			c-1.487,1.831-3.641,3.511-6.461,5.042c-3.001,1.62-5.621,2.43-7.857,2.43c-2.349,0-4.203-0.997-5.565-2.992
			c-1.098-1.621-1.646-3.264-1.646-4.93c0-2.4,1.188-4.688,3.564-6.863c1.75-1.591,3.442-2.799,5.075-3.624
			c1.632-0.825,3.109-1.463,4.429-1.913c2.793-0.945,5.308-1.418,7.545-1.418c1,0,1.893,0.207,2.678,0.619
			c0.785,0.413,1.365,0.829,1.74,1.249c0.889,0.945,1.334,2.153,1.334,3.624c0,0.435-0.042,0.773-0.125,1.013
			C88.947,39.453,88.905,39.678,88.905,39.888z M71.856,44.142l-0.021,0.066v0.023c0,0.645,0.132,1.064,0.396,1.26
			c0.639,0.42,1.313,0.529,2.022,0.326c0.708-0.202,1.382-0.453,2.021-0.754c1.584-0.734,3.015-1.665,4.293-2.791
			c-0.222-0.479-0.333-0.975-0.333-1.484c0-1.08,0.438-2.161,1.313-3.241c-1.112,0-2.613,0.563-4.502,1.688
			c-2.084,1.246-3.647,2.528-4.69,3.848C72.022,43.534,71.856,43.886,71.856,44.142z"/>
		<path fill="#C23235" d="M107.267,47c-0.487,0-0.729-0.307-0.729-0.922c0-0.586,0.156-1.178,0.469-1.778s0.608-1.024,0.886-1.272
			c0.278-0.247,0.577-0.469,0.896-0.663c0.694-0.39,1.306-0.585,1.834-0.585h12.068c0.222,0,0.43,0.086,0.625,0.258
			c0.194,0.174,0.292,0.41,0.292,0.709c0,0.602-0.185,1.234-0.552,1.902c-0.369,0.668-0.806,1.23-1.313,1.688
			c-0.508,0.458-1.025,0.688-1.553,0.688L107.267,47z"/>
		<path fill="#C23235" d="M168.148,48.283l0.042-1.53c0.027-0.96,0.111-2.011,0.25-3.151l0.334-2.655
			c0.069-0.63,0.139-1.2,0.208-1.71c-1.32,1.561-2.383,2.776-3.188,3.646l-2.397,2.521c-5.363,5.416-8.56,8.125-9.587,8.125
			c-1.515,0-3.105-0.354-4.773-1.059c-0.903-0.39-1.417-0.795-1.542-1.215c-0.195-0.525-0.292-1.241-0.292-2.149
			c0-0.907,0.027-1.744,0.083-2.509c0.056-0.766,0.125-1.527,0.209-2.285c0.083-0.758,0.17-1.484,0.261-2.183
			c0.09-0.698,0.163-1.31,0.219-1.835c0.139-1.185,0.166-1.777,0.083-1.777L140.303,48.8c-3.655,4.637-5.732,7.201-6.232,7.697
			c-1.07,1.05-2.251,1.575-3.543,1.575c-0.64,0-1.167-0.173-1.584-0.519c-0.417-0.345-0.626-0.771-0.626-1.282
			c0-1.021,0.396-2.085,1.188-3.196l18.508-25.408l2.168-2.813c2.584-3.286,4.279-4.929,5.086-4.929
			c1.125,0,2.195,0.308,3.209,0.923c0.903,0.54,1.418,1.065,1.543,1.575c0.055,0.195-0.063,1.103-0.354,2.724l-0.729,4.253
			c-0.82,4.741-1.229,7.798-1.229,9.171c0,1.374,0.146,2.059,0.438,2.059c0.944,0,2.765-1.672,5.461-5.019l6.753-8.732
			c1.486-1.846,2.473-2.896,2.959-3.151c0.139-0.075,0.341-0.113,0.604-0.113s0.56,0.038,0.886,0.113
			c0.327,0.075,0.66,0.172,1.001,0.292c0.34,0.12,0.67,0.263,0.99,0.428c0.319,0.165,0.604,0.337,0.854,0.518
			c0.542,0.39,0.809,0.709,0.802,0.957s-0.065,0.78-0.177,1.598c-0.111,0.818-0.25,1.812-0.417,2.982
			c-1.153,7.757-1.754,12.258-1.803,13.503s0.069,2.026,0.354,2.341c0.284,0.314,0.705,0.473,1.261,0.473
			c1.014,0,2.487-0.652,4.419-1.958c1.306-0.886,2.386-1.328,3.24-1.328s1.282,0.442,1.282,1.328c0,0.915-0.459,2.025-1.376,3.331
			c-1.32,1.891-3.293,3.601-5.919,5.131c-2.209,1.275-4.308,1.913-6.294,1.913C169.774,55.237,168.148,52.919,168.148,48.283z"/>
		<path fill="#C23235" d="M200.121,52.502c-1.057,0.593-2.085,1.065-3.085,1.418s-1.983,0.528-2.949,0.528s-1.967-0.251-3.001-0.754
			c-1.035-0.502-1.956-1.174-2.762-2.014c-1.793-1.875-2.688-3.961-2.688-6.257c0-2.116,0.583-4.261,1.75-6.437
			c1.07-1.965,2.432-3.616,4.085-4.951c1.654-1.335,3.189-2.003,4.606-2.003c2.028,0,3.112,0.615,3.252,1.845
			c0.041,0.375,0.063,0.81,0.063,1.305s-0.108,1.062-0.323,1.699c-0.216,0.638-0.493,1.275-0.834,1.913
			c-0.341,0.639-0.716,1.26-1.125,1.868c-0.41,0.607-0.803,1.159-1.178,1.653c-0.723,0.945-1.3,1.629-1.73,2.049
			c0,0.51,0.354,1.035,1.063,1.575c0.667,0.511,1.232,0.765,1.698,0.765s1.015-0.119,1.646-0.359c0.633-0.24,1.285-0.563,1.96-0.968
			c0.674-0.405,1.361-0.87,2.063-1.396c0.701-0.525,1.393-1.064,2.073-1.62l3.814-3.218c1.514-1.185,2.744-1.778,3.688-1.778
			c0.376,0,0.664,0.146,0.865,0.439s0.303,0.634,0.303,1.024c0,0.391-0.181,0.927-0.542,1.609c-0.361,0.684-0.858,1.438-1.49,2.262
			c-0.633,0.826-1.373,1.688-2.22,2.589c-0.848,0.899-1.765,1.786-2.751,2.655c-0.987,0.871-2.012,1.699-3.075,2.486
			C202.236,51.22,201.176,51.91,200.121,52.502z M205.373,27.724c-0.403,0.368-0.841,0.668-1.313,0.9s-1,0.349-1.584,0.349
			c-0.583,0-1.146-0.104-1.688-0.315c-0.542-0.21-1.015-0.502-1.418-0.878c-0.875-0.81-1.313-1.845-1.313-3.105
			c0-1.936,1.5-3.376,4.502-4.321c1.014-0.33,1.848-0.495,2.501-0.495s1.143,0.079,1.47,0.236c0.326,0.158,0.594,0.364,0.802,0.619
			c0.417,0.51,0.626,1.032,0.626,1.564c0,0.533-0.06,1.017-0.178,1.452s-0.288,0.885-0.511,1.35s-0.493,0.931-0.813,1.396
			C206.136,26.94,205.776,27.356,205.373,27.724z"/>
		<path fill="#C23235" d="M225.986,43.759c1.001,1.71,2.063,2.565,3.189,2.565c1.139,0,3.285-1.126,6.439-3.376l2.272-1.666
			c0.681-0.524,1.25-0.979,1.709-1.361c0.458-0.383,0.854-0.708,1.188-0.979c0.751-0.63,1.612-0.945,2.585-0.945
			c0.306,0,0.601,0.098,0.886,0.292c0.284,0.195,0.428,0.461,0.428,0.799s-0.046,0.675-0.136,1.012
			c-0.091,0.338-0.227,0.688-0.406,1.047c-0.39,0.855-0.761,1.501-1.115,1.936c-0.354,0.436-0.733,0.871-1.136,1.306
			s-0.894,0.938-1.47,1.508c-0.577,0.57-1.237,1.189-1.98,1.856c-0.743,0.668-1.539,1.332-2.386,1.992
			c-0.848,0.66-1.74,1.298-2.679,1.912c-0.938,0.616-1.9,1.156-2.887,1.621c-2.195,1.035-4.168,1.553-5.919,1.553
			c-1.932,0-3.516-1.14-4.752-3.421c-0.362-0.675-0.695-1.38-1.001-2.115l-6.461,4.996c-1.028,0.87-1.952,1.306-2.772,1.306
			c-0.444,0-0.826-0.135-1.146-0.405c-0.611-0.511-0.918-1.058-0.918-1.644c0-0.584,0.102-1.023,0.303-1.316
			c0.201-0.292,0.462-0.588,0.781-0.889l8.212-7.629c-0.625-1.576-1.258-2.363-1.896-2.363c-0.931,0-1.876,0.42-2.834,1.26
			l-0.918,0.788c-1.306,1.155-2.466,1.733-3.48,1.733c-0.402,0-0.771-0.136-1.104-0.406c-0.653-0.524-0.979-1.132-0.979-1.822
			c0-0.689,0.702-1.666,2.105-2.926l0.813-0.743c0.361-0.36,0.729-0.712,1.104-1.058l4.272-3.759
			c2.057-1.725,3.745-2.588,5.065-2.588c1.152,0,2.278,1.208,3.376,3.624c0.319,0.705,0.639,1.448,0.959,2.228l3.835-3.556
			c2.223-2.025,3.891-3.038,5.002-3.038c0.848,0,1.626,0.27,2.335,0.81c1.319,1.005,1.979,1.966,1.979,2.881
			c0,0.57-0.223,0.998-0.667,1.283c-0.083,0.045-0.229,0.15-0.438,0.315l-4.71,3.781L225.986,43.759z"/>
	</g>
</g>
<g>
	<g enable-background="new    ">
		<path fill="none" stroke="#000000" stroke-width="3" stroke-miterlimit="10" d="M5.376,49.357
			c-0.237-0.436-0.323-0.859-0.261-1.271c0.063-0.413,0.247-0.953,0.552-1.621c0.306-0.667,0.723-1.504,1.25-2.51l1.834-3.375
			l2.251-4.006l2.542-4.321l2.668-4.321c-3.349,0.9-5.906,1.973-7.67,3.218C8.25,31.36,8,31.578,7.792,31.803l-0.708,0.765
			c-0.431,0.465-0.854,0.698-1.271,0.698s-0.74-0.056-0.969-0.169c-0.229-0.112-0.414-0.259-0.552-0.439
			c-0.348-0.435-0.41-0.915-0.188-1.44c0.597-2.07,1.452-4.186,2.563-6.346c0.611-1.2,1.098-1.891,1.459-2.071
			c2.64-1.23,8.142-2.123,16.507-2.678c2.723-0.18,5.586-0.27,8.587-0.27c1.959,0,3.821,0.758,5.586,2.273
			c1.973,1.726,2.959,3.886,2.959,6.482c0,3.391-2.696,6.602-8.087,9.632c-2.987,1.696-5.794,2.881-8.42,3.556
			c-0.681,0.166-1.206,0.248-1.574,0.248c-0.369,0-0.785-0.053-1.25-0.158c-0.466-0.104-0.886-0.254-1.261-0.449
			c-0.889-0.48-1.334-1.059-1.334-1.733c0-0.96,0.854-1.936,2.564-2.926l4.481-2.611c2.654-1.53,4.293-2.64,4.919-3.331
			c0.625-0.69,0.938-1.256,0.938-1.699c0-0.442-0.081-0.852-0.24-1.227c-0.16-0.375-0.379-0.712-0.657-1.013
			c-0.598-0.645-1.237-0.968-1.917-0.968c-1.417,0-3.126,0.12-5.127,0.36l-2.542,4.839c-3.251,6.377-5.461,12.108-6.628,17.195
			c-0.473,1.98-2.258,2.971-5.356,2.971C7.717,51.292,6.084,50.647,5.376,49.357z"/>
		<path fill="none" stroke="#000000" stroke-width="3" stroke-miterlimit="10" d="M39.224,43.326c-0.264,0-0.524-0.068-0.782-0.203
			c-0.257-0.135-0.497-0.353-0.719-0.652c-0.486-0.66-0.729-1.561-0.729-2.701c0-1.215,0.674-2.73,2.021-4.546
			c1.306-1.755,2.828-3.271,4.564-4.546c1.862-1.38,3.46-2.07,4.794-2.07c1.181,0,1.98,0.36,2.397,1.08l0.292,0.495
			c0.222,0.375,0.445,0.563,0.667,0.563s0.57-0.023,1.042-0.068l2.959-0.225c0.458-0.045,0.82-0.067,1.083-0.067
			c0.264,0,0.566,0.102,0.907,0.304c0.34,0.203,0.643,0.469,0.907,0.799c0.583,0.75,0.875,1.575,0.875,2.476
			c0,0.93-0.952,2.393-2.855,4.389l-1.375,1.486c-0.987,1.095-1.48,1.785-1.48,2.07s0.125,0.536,0.375,0.754
			c0.25,0.217,0.521,0.326,0.813,0.326s0.622-0.086,0.99-0.26c0.368-0.172,0.823-0.427,1.365-0.765
			c0.542-0.337,1.16-0.746,1.855-1.227c1.903-1.351,3.175-2.28,3.814-2.791l1.73-1.328c1.181-0.9,2.021-1.35,2.522-1.35
			c0.5,0,0.91,0.116,1.229,0.349c0.32,0.233,0.479,0.634,0.479,1.204s-0.271,1.336-0.813,2.296c-0.542,0.96-1.129,1.793-1.761,2.498
			s-1.247,1.357-1.844,1.958c-0.598,0.601-1.303,1.249-2.116,1.946c-0.813,0.698-1.712,1.403-2.699,2.115
			c-0.986,0.713-2.029,1.355-3.126,1.925c-2.488,1.306-4.773,1.958-6.857,1.958c-3.043,0-4.898-0.848-5.565-2.543
			c-0.208-0.51-0.313-1.08-0.313-1.711c0-0.63,0.111-1.309,0.333-2.036c0.222-0.728,0.514-1.452,0.875-2.172
			c0.722-1.425,1.577-2.686,2.563-3.781c0.833-0.945,1.25-1.508,1.25-1.688c0-0.285-0.149-0.465-0.448-0.54
			c-0.299-0.075-0.74-0.112-1.323-0.112c-0.25,0-0.785,0.39-1.605,1.17l-2.042,2.025C41.309,42.259,39.891,43.326,39.224,43.326z"/>
		<path fill="none" stroke="#000000" stroke-width="3" stroke-miterlimit="10" d="M87.245,36.889c0,0.81,0.639,1.215,1.917,1.215
			c0.944,0,2.181-0.495,3.71-1.486l1.667-0.99c0.514-0.315,0.962-0.472,1.345-0.472c0.382,0,0.684,0.127,0.906,0.382
			s0.333,0.608,0.333,1.058c0,0.45-0.139,0.972-0.417,1.564c-0.278,0.593-0.66,1.215-1.146,1.868s-1.056,1.298-1.709,1.936
			s-1.355,1.212-2.105,1.722c-1.667,1.125-3.217,1.688-4.648,1.688c-1.515,0-2.724-0.277-3.627-0.832
			c-0.278-0.18-0.549-0.367-0.813-0.563c-1.487,1.83-3.641,3.511-6.461,5.041c-3.001,1.621-5.621,2.431-7.857,2.431
			c-2.349,0-4.203-0.997-5.565-2.993c-1.098-1.621-1.646-3.264-1.646-4.929c0-2.4,1.188-4.689,3.564-6.864
			c1.75-1.59,3.442-2.798,5.075-3.624c1.632-0.825,3.109-1.463,4.429-1.913c2.793-0.945,5.308-1.418,7.545-1.418
			c1,0,1.893,0.207,2.678,0.619c0.785,0.413,1.365,0.829,1.74,1.249c0.889,0.945,1.334,2.153,1.334,3.624
			c0,0.435-0.042,0.773-0.125,1.013C87.287,36.454,87.245,36.679,87.245,36.889z M70.196,41.142l-0.021,0.067v0.022
			c0,0.646,0.132,1.065,0.396,1.26c0.639,0.421,1.313,0.529,2.022,0.327c0.708-0.202,1.382-0.454,2.021-0.754
			c1.584-0.735,3.015-1.665,4.293-2.791c-0.222-0.48-0.333-0.975-0.333-1.485c0-1.08,0.438-2.161,1.313-3.241
			c-1.112,0-2.613,0.563-4.502,1.688c-2.084,1.246-3.647,2.528-4.69,3.849C70.362,40.535,70.196,40.887,70.196,41.142z"/>
		<path fill="none" stroke="#000000" stroke-width="3" stroke-miterlimit="10" d="M105.606,44c-0.487,0-0.729-0.308-0.729-0.923
			c0-0.586,0.156-1.178,0.469-1.777c0.313-0.601,0.608-1.025,0.886-1.272s0.577-0.469,0.896-0.663
			c0.694-0.391,1.306-0.586,1.834-0.586h12.068c0.222,0,0.43,0.086,0.625,0.259c0.194,0.173,0.292,0.409,0.292,0.709
			c0,0.601-0.185,1.234-0.552,1.901c-0.369,0.668-0.806,1.23-1.313,1.688c-0.508,0.458-1.025,0.687-1.553,0.687L105.606,44z"/>
		<path fill="none" stroke="#000000" stroke-width="3" stroke-miterlimit="10" d="M166.488,45.283l0.042-1.529
			c0.027-0.961,0.111-2.012,0.25-3.151l0.334-2.656c0.069-0.63,0.139-1.2,0.208-1.71c-1.32,1.561-2.383,2.776-3.188,3.646
			l-2.397,2.52c-5.363,5.417-8.56,8.125-9.587,8.125c-1.515,0-3.105-0.353-4.773-1.058c-0.903-0.39-1.417-0.796-1.542-1.216
			c-0.195-0.524-0.292-1.24-0.292-2.148s0.027-1.744,0.083-2.51s0.125-1.526,0.209-2.284c0.083-0.758,0.17-1.485,0.261-2.183
			c0.09-0.698,0.163-1.309,0.219-1.834c0.139-1.185,0.166-1.778,0.083-1.778L138.643,45.8c-3.655,4.637-5.732,7.202-6.232,7.697
			c-1.07,1.051-2.251,1.576-3.543,1.576c-0.64,0-1.167-0.174-1.584-0.519s-0.626-0.772-0.626-1.282c0-1.021,0.396-2.086,1.188-3.196
			l18.508-25.409l2.168-2.813c2.584-3.286,4.279-4.929,5.086-4.929c1.125,0,2.195,0.308,3.209,0.923
			c0.903,0.54,1.418,1.065,1.543,1.575c0.055,0.195-0.063,1.103-0.354,2.724l-0.729,4.253c-0.82,4.741-1.229,7.798-1.229,9.171
			s0.146,2.06,0.438,2.06c0.944,0,2.765-1.673,5.461-5.019l6.753-8.732c1.486-1.846,2.473-2.896,2.959-3.151
			c0.139-0.075,0.341-0.113,0.604-0.113s0.56,0.038,0.886,0.113c0.327,0.075,0.66,0.172,1.001,0.292
			c0.34,0.12,0.67,0.263,0.99,0.428c0.319,0.165,0.604,0.337,0.854,0.518c0.542,0.39,0.809,0.709,0.802,0.957
			s-0.065,0.78-0.177,1.598c-0.111,0.818-0.25,1.812-0.417,2.982c-1.153,7.757-1.754,12.258-1.803,13.504
			c-0.049,1.245,0.069,2.025,0.354,2.34c0.284,0.315,0.705,0.473,1.261,0.473c1.014,0,2.487-0.652,4.419-1.957
			c1.306-0.886,2.386-1.328,3.24-1.328s1.282,0.442,1.282,1.328c0,0.914-0.459,2.025-1.376,3.33
			c-1.32,1.891-3.293,3.602-5.919,5.131c-2.209,1.275-4.308,1.914-6.294,1.914C168.114,52.238,166.488,49.919,166.488,45.283z"/>
		<path fill="none" stroke="#000000" stroke-width="3" stroke-miterlimit="10" d="M198.46,49.503
			c-1.057,0.592-2.085,1.064-3.085,1.418c-1,0.352-1.983,0.528-2.949,0.528s-1.967-0.251-3.001-0.754
			c-1.035-0.503-1.956-1.174-2.762-2.015c-1.793-1.875-2.688-3.961-2.688-6.256c0-2.116,0.583-4.261,1.75-6.437
			c1.07-1.965,2.432-3.616,4.085-4.951c1.654-1.335,3.189-2.003,4.606-2.003c2.028,0,3.112,0.615,3.252,1.845
			c0.041,0.375,0.063,0.81,0.063,1.305c0,0.495-0.108,1.062-0.323,1.699c-0.216,0.638-0.493,1.275-0.834,1.913
			c-0.341,0.638-0.716,1.26-1.125,1.868c-0.41,0.607-0.803,1.159-1.178,1.654c-0.723,0.945-1.3,1.628-1.73,2.048
			c0,0.511,0.354,1.035,1.063,1.576c0.667,0.51,1.232,0.765,1.698,0.765s1.015-0.12,1.646-0.36c0.633-0.239,1.285-0.563,1.96-0.967
			c0.674-0.406,1.361-0.871,2.063-1.396c0.701-0.524,1.393-1.064,2.073-1.619l3.814-3.219c1.514-1.185,2.744-1.778,3.688-1.778
			c0.376,0,0.664,0.146,0.865,0.439s0.303,0.634,0.303,1.024c0,0.391-0.181,0.927-0.542,1.609s-0.858,1.437-1.49,2.262
			c-0.633,0.825-1.373,1.688-2.22,2.589c-0.848,0.899-1.765,1.785-2.751,2.654c-0.987,0.871-2.012,1.699-3.075,2.487
			C200.576,48.22,199.516,48.91,198.46,49.503z M203.712,24.724c-0.403,0.368-0.841,0.668-1.313,0.9s-1,0.349-1.584,0.349
			c-0.583,0-1.146-0.104-1.688-0.315c-0.542-0.21-1.015-0.502-1.418-0.878c-0.875-0.81-1.313-1.845-1.313-3.105
			c0-1.936,1.5-3.376,4.502-4.321c1.014-0.33,1.848-0.495,2.501-0.495s1.143,0.079,1.47,0.236c0.326,0.158,0.594,0.364,0.802,0.619
			c0.417,0.51,0.626,1.032,0.626,1.564c0,0.533-0.06,1.017-0.178,1.452s-0.288,0.885-0.511,1.35s-0.493,0.931-0.813,1.396
			C204.476,23.94,204.116,24.356,203.712,24.724z"/>
		<path fill="none" stroke="#000000" stroke-width="3" stroke-miterlimit="10" d="M224.326,40.759
			c1.001,1.711,2.063,2.566,3.189,2.566c1.139,0,3.285-1.126,6.439-3.377l2.272-1.665c0.681-0.525,1.25-0.979,1.709-1.361
			c0.458-0.383,0.854-0.709,1.188-0.979c0.751-0.63,1.612-0.945,2.585-0.945c0.306,0,0.601,0.098,0.886,0.292
			c0.284,0.195,0.428,0.461,0.428,0.799s-0.046,0.675-0.136,1.013c-0.091,0.338-0.227,0.687-0.406,1.047
			c-0.39,0.855-0.761,1.501-1.115,1.936s-0.733,0.87-1.136,1.306c-0.403,0.435-0.894,0.938-1.47,1.508
			c-0.577,0.57-1.237,1.189-1.98,1.856s-1.539,1.331-2.386,1.991c-0.848,0.66-1.74,1.299-2.679,1.913
			c-0.938,0.616-1.9,1.155-2.887,1.62c-2.195,1.035-4.168,1.553-5.919,1.553c-1.932,0-3.516-1.139-4.752-3.42
			c-0.362-0.676-0.695-1.381-1.001-2.115l-6.461,4.996c-1.028,0.869-1.952,1.305-2.772,1.305c-0.444,0-0.826-0.135-1.146-0.404
			c-0.611-0.511-0.918-1.059-0.918-1.644s0.102-1.024,0.303-1.316s0.462-0.589,0.781-0.89l8.212-7.629
			c-0.625-1.575-1.258-2.363-1.896-2.363c-0.931,0-1.876,0.42-2.834,1.26l-0.918,0.788c-1.306,1.154-2.466,1.732-3.48,1.732
			c-0.402,0-0.771-0.135-1.104-0.405c-0.653-0.524-0.979-1.132-0.979-1.823c0-0.689,0.702-1.665,2.105-2.925l0.813-0.743
			c0.361-0.36,0.729-0.712,1.104-1.058l4.272-3.759c2.057-1.725,3.745-2.588,5.065-2.588c1.152,0,2.278,1.208,3.376,3.624
			c0.319,0.705,0.639,1.448,0.959,2.228l3.835-3.556c2.223-2.025,3.891-3.038,5.002-3.038c0.848,0,1.626,0.27,2.335,0.81
			c1.319,1.005,1.979,1.966,1.979,2.881c0,0.57-0.223,0.998-0.667,1.283c-0.083,0.045-0.229,0.15-0.438,0.315l-4.71,3.781
			L224.326,40.759z"/>
	</g>
	<g enable-background="new    ">
		<path d="M5.376,49.357c-0.237-0.436-0.323-0.859-0.261-1.271c0.063-0.413,0.247-0.953,0.552-1.621
			c0.306-0.667,0.723-1.504,1.25-2.51l1.834-3.375l2.251-4.006l2.542-4.321l2.668-4.321c-3.349,0.9-5.906,1.973-7.67,3.218
			C8.25,31.36,8,31.578,7.792,31.803l-0.708,0.765c-0.431,0.465-0.854,0.698-1.271,0.698s-0.74-0.056-0.969-0.169
			c-0.229-0.112-0.414-0.259-0.552-0.439c-0.348-0.435-0.41-0.915-0.188-1.44c0.597-2.07,1.452-4.186,2.563-6.346
			c0.611-1.2,1.098-1.891,1.459-2.071c2.64-1.23,8.142-2.123,16.507-2.678c2.723-0.18,5.586-0.27,8.587-0.27
			c1.959,0,3.821,0.758,5.586,2.273c1.973,1.726,2.959,3.886,2.959,6.482c0,3.391-2.696,6.602-8.087,9.632
			c-2.987,1.696-5.794,2.881-8.42,3.556c-0.681,0.166-1.206,0.248-1.574,0.248c-0.369,0-0.785-0.053-1.25-0.158
			c-0.466-0.104-0.886-0.254-1.261-0.449c-0.889-0.48-1.334-1.059-1.334-1.733c0-0.96,0.854-1.936,2.564-2.926l4.481-2.611
			c2.654-1.53,4.293-2.64,4.919-3.331c0.625-0.69,0.938-1.256,0.938-1.699c0-0.442-0.081-0.852-0.24-1.227
			c-0.16-0.375-0.379-0.712-0.657-1.013c-0.598-0.645-1.237-0.968-1.917-0.968c-1.417,0-3.126,0.12-5.127,0.36l-2.542,4.839
			c-3.251,6.377-5.461,12.108-6.628,17.195c-0.473,1.98-2.258,2.971-5.356,2.971C7.717,51.292,6.084,50.647,5.376,49.357z"/>
		<path d="M39.224,43.326c-0.264,0-0.524-0.068-0.782-0.203c-0.257-0.135-0.497-0.353-0.719-0.652
			c-0.486-0.66-0.729-1.561-0.729-2.701c0-1.215,0.674-2.73,2.021-4.546c1.306-1.755,2.828-3.271,4.564-4.546
			c1.862-1.38,3.46-2.07,4.794-2.07c1.181,0,1.98,0.36,2.397,1.08l0.292,0.495c0.222,0.375,0.445,0.563,0.667,0.563
			s0.57-0.023,1.042-0.068l2.959-0.225c0.458-0.045,0.82-0.067,1.083-0.067c0.264,0,0.566,0.102,0.907,0.304
			c0.34,0.203,0.643,0.469,0.907,0.799c0.583,0.75,0.875,1.575,0.875,2.476c0,0.93-0.952,2.393-2.855,4.389l-1.375,1.486
			c-0.987,1.095-1.48,1.785-1.48,2.07s0.125,0.536,0.375,0.754c0.25,0.217,0.521,0.326,0.813,0.326s0.622-0.086,0.99-0.26
			c0.368-0.172,0.823-0.427,1.365-0.765c0.542-0.337,1.16-0.746,1.855-1.227c1.903-1.351,3.175-2.28,3.814-2.791l1.73-1.328
			c1.181-0.9,2.021-1.35,2.522-1.35c0.5,0,0.91,0.116,1.229,0.349c0.32,0.233,0.479,0.634,0.479,1.204s-0.271,1.336-0.813,2.296
			c-0.542,0.96-1.129,1.793-1.761,2.498s-1.247,1.357-1.844,1.958c-0.598,0.601-1.303,1.249-2.116,1.946
			c-0.813,0.698-1.712,1.403-2.699,2.115c-0.986,0.713-2.029,1.355-3.126,1.925c-2.488,1.306-4.773,1.958-6.857,1.958
			c-3.043,0-4.898-0.848-5.565-2.543c-0.208-0.51-0.313-1.08-0.313-1.711c0-0.63,0.111-1.309,0.333-2.036
			c0.222-0.728,0.514-1.452,0.875-2.172c0.722-1.425,1.577-2.686,2.563-3.781c0.833-0.945,1.25-1.508,1.25-1.688
			c0-0.285-0.149-0.465-0.448-0.54c-0.299-0.075-0.74-0.112-1.323-0.112c-0.25,0-0.785,0.39-1.605,1.17l-2.042,2.025
			C41.309,42.259,39.891,43.326,39.224,43.326z"/>
		<path d="M87.245,36.889c0,0.81,0.639,1.215,1.917,1.215c0.944,0,2.181-0.495,3.71-1.486l1.667-0.99
			c0.514-0.315,0.962-0.472,1.345-0.472c0.382,0,0.684,0.127,0.906,0.382s0.333,0.608,0.333,1.058c0,0.45-0.139,0.972-0.417,1.564
			c-0.278,0.593-0.66,1.215-1.146,1.868s-1.056,1.298-1.709,1.936s-1.355,1.212-2.105,1.722c-1.667,1.125-3.217,1.688-4.648,1.688
			c-1.515,0-2.724-0.277-3.627-0.832c-0.278-0.18-0.549-0.367-0.813-0.563c-1.487,1.83-3.641,3.511-6.461,5.041
			c-3.001,1.621-5.621,2.431-7.857,2.431c-2.349,0-4.203-0.997-5.565-2.993c-1.098-1.621-1.646-3.264-1.646-4.929
			c0-2.4,1.188-4.689,3.564-6.864c1.75-1.59,3.442-2.798,5.075-3.624c1.632-0.825,3.109-1.463,4.429-1.913
			c2.793-0.945,5.308-1.418,7.545-1.418c1,0,1.893,0.207,2.678,0.619c0.785,0.413,1.365,0.829,1.74,1.249
			c0.889,0.945,1.334,2.153,1.334,3.624c0,0.435-0.042,0.773-0.125,1.013C87.287,36.454,87.245,36.679,87.245,36.889z
			 M70.196,41.142l-0.021,0.067v0.022c0,0.646,0.132,1.065,0.396,1.26c0.639,0.421,1.313,0.529,2.022,0.327
			c0.708-0.202,1.382-0.454,2.021-0.754c1.584-0.735,3.015-1.665,4.293-2.791c-0.222-0.48-0.333-0.975-0.333-1.485
			c0-1.08,0.438-2.161,1.313-3.241c-1.112,0-2.613,0.563-4.502,1.688c-2.084,1.246-3.647,2.528-4.69,3.849
			C70.362,40.535,70.196,40.887,70.196,41.142z"/>
		<path d="M105.606,44c-0.487,0-0.729-0.308-0.729-0.923c0-0.586,0.156-1.178,0.469-1.777c0.313-0.601,0.608-1.025,0.886-1.272
			s0.577-0.469,0.896-0.663c0.694-0.391,1.306-0.586,1.834-0.586h12.068c0.222,0,0.43,0.086,0.625,0.259
			c0.194,0.173,0.292,0.409,0.292,0.709c0,0.601-0.185,1.234-0.552,1.901c-0.369,0.668-0.806,1.23-1.313,1.688
			c-0.508,0.458-1.025,0.687-1.553,0.687L105.606,44z"/>
		<path d="M166.488,45.283l0.042-1.529c0.027-0.961,0.111-2.012,0.25-3.151l0.334-2.656c0.069-0.63,0.139-1.2,0.208-1.71
			c-1.32,1.561-2.383,2.776-3.188,3.646l-2.397,2.52c-5.363,5.417-8.56,8.125-9.587,8.125c-1.515,0-3.105-0.353-4.773-1.058
			c-0.903-0.39-1.417-0.796-1.542-1.216c-0.195-0.524-0.292-1.24-0.292-2.148s0.027-1.744,0.083-2.51s0.125-1.526,0.209-2.284
			c0.083-0.758,0.17-1.485,0.261-2.183c0.09-0.698,0.163-1.309,0.219-1.834c0.139-1.185,0.166-1.778,0.083-1.778L138.643,45.8
			c-3.655,4.637-5.732,7.202-6.232,7.697c-1.07,1.051-2.251,1.576-3.543,1.576c-0.64,0-1.167-0.174-1.584-0.519
			s-0.626-0.772-0.626-1.282c0-1.021,0.396-2.086,1.188-3.196l18.508-25.409l2.168-2.813c2.584-3.286,4.279-4.929,5.086-4.929
			c1.125,0,2.195,0.308,3.209,0.923c0.903,0.54,1.418,1.065,1.543,1.575c0.055,0.195-0.063,1.103-0.354,2.724l-0.729,4.253
			c-0.82,4.741-1.229,7.798-1.229,9.171s0.146,2.06,0.438,2.06c0.944,0,2.765-1.673,5.461-5.019l6.753-8.732
			c1.486-1.846,2.473-2.896,2.959-3.151c0.139-0.075,0.341-0.113,0.604-0.113s0.56,0.038,0.886,0.113
			c0.327,0.075,0.66,0.172,1.001,0.292c0.34,0.12,0.67,0.263,0.99,0.428c0.319,0.165,0.604,0.337,0.854,0.518
			c0.542,0.39,0.809,0.709,0.802,0.957s-0.065,0.78-0.177,1.598c-0.111,0.818-0.25,1.812-0.417,2.982
			c-1.153,7.757-1.754,12.258-1.803,13.504c-0.049,1.245,0.069,2.025,0.354,2.34c0.284,0.315,0.705,0.473,1.261,0.473
			c1.014,0,2.487-0.652,4.419-1.957c1.306-0.886,2.386-1.328,3.24-1.328s1.282,0.442,1.282,1.328c0,0.914-0.459,2.025-1.376,3.33
			c-1.32,1.891-3.293,3.602-5.919,5.131c-2.209,1.275-4.308,1.914-6.294,1.914C168.114,52.238,166.488,49.919,166.488,45.283z"/>
		<path d="M198.46,49.503c-1.057,0.592-2.085,1.064-3.085,1.418c-1,0.352-1.983,0.528-2.949,0.528s-1.967-0.251-3.001-0.754
			c-1.035-0.503-1.956-1.174-2.762-2.015c-1.793-1.875-2.688-3.961-2.688-6.256c0-2.116,0.583-4.261,1.75-6.437
			c1.07-1.965,2.432-3.616,4.085-4.951c1.654-1.335,3.189-2.003,4.606-2.003c2.028,0,3.112,0.615,3.252,1.845
			c0.041,0.375,0.063,0.81,0.063,1.305c0,0.495-0.108,1.062-0.323,1.699c-0.216,0.638-0.493,1.275-0.834,1.913
			c-0.341,0.638-0.716,1.26-1.125,1.868c-0.41,0.607-0.803,1.159-1.178,1.654c-0.723,0.945-1.3,1.628-1.73,2.048
			c0,0.511,0.354,1.035,1.063,1.576c0.667,0.51,1.232,0.765,1.698,0.765s1.015-0.12,1.646-0.36c0.633-0.239,1.285-0.563,1.96-0.967
			c0.674-0.406,1.361-0.871,2.063-1.396c0.701-0.524,1.393-1.064,2.073-1.619l3.814-3.219c1.514-1.185,2.744-1.778,3.688-1.778
			c0.376,0,0.664,0.146,0.865,0.439s0.303,0.634,0.303,1.024c0,0.391-0.181,0.927-0.542,1.609s-0.858,1.437-1.49,2.262
			c-0.633,0.825-1.373,1.688-2.22,2.589c-0.848,0.899-1.765,1.785-2.751,2.654c-0.987,0.871-2.012,1.699-3.075,2.487
			C200.576,48.22,199.516,48.91,198.46,49.503z M203.712,24.724c-0.403,0.368-0.841,0.668-1.313,0.9s-1,0.349-1.584,0.349
			c-0.583,0-1.146-0.104-1.688-0.315c-0.542-0.21-1.015-0.502-1.418-0.878c-0.875-0.81-1.313-1.845-1.313-3.105
			c0-1.936,1.5-3.376,4.502-4.321c1.014-0.33,1.848-0.495,2.501-0.495s1.143,0.079,1.47,0.236c0.326,0.158,0.594,0.364,0.802,0.619
			c0.417,0.51,0.626,1.032,0.626,1.564c0,0.533-0.06,1.017-0.178,1.452s-0.288,0.885-0.511,1.35s-0.493,0.931-0.813,1.396
			C204.476,23.94,204.116,24.356,203.712,24.724z"/>
		<path d="M224.326,40.759c1.001,1.711,2.063,2.566,3.189,2.566c1.139,0,3.285-1.126,6.439-3.377l2.272-1.665
			c0.681-0.525,1.25-0.979,1.709-1.361c0.458-0.383,0.854-0.709,1.188-0.979c0.751-0.63,1.612-0.945,2.585-0.945
			c0.306,0,0.601,0.098,0.886,0.292c0.284,0.195,0.428,0.461,0.428,0.799s-0.046,0.675-0.136,1.013
			c-0.091,0.338-0.227,0.687-0.406,1.047c-0.39,0.855-0.761,1.501-1.115,1.936s-0.733,0.87-1.136,1.306
			c-0.403,0.435-0.894,0.938-1.47,1.508c-0.577,0.57-1.237,1.189-1.98,1.856s-1.539,1.331-2.386,1.991
			c-0.848,0.66-1.74,1.299-2.679,1.913c-0.938,0.616-1.9,1.155-2.887,1.62c-2.195,1.035-4.168,1.553-5.919,1.553
			c-1.932,0-3.516-1.139-4.752-3.42c-0.362-0.676-0.695-1.381-1.001-2.115l-6.461,4.996c-1.028,0.869-1.952,1.305-2.772,1.305
			c-0.444,0-0.826-0.135-1.146-0.404c-0.611-0.511-0.918-1.059-0.918-1.644s0.102-1.024,0.303-1.316s0.462-0.589,0.781-0.89
			l8.212-7.629c-0.625-1.575-1.258-2.363-1.896-2.363c-0.931,0-1.876,0.42-2.834,1.26l-0.918,0.788
			c-1.306,1.154-2.466,1.732-3.48,1.732c-0.402,0-0.771-0.135-1.104-0.405c-0.653-0.524-0.979-1.132-0.979-1.823
			c0-0.689,0.702-1.665,2.105-2.925l0.813-0.743c0.361-0.36,0.729-0.712,1.104-1.058l4.272-3.759
			c2.057-1.725,3.745-2.588,5.065-2.588c1.152,0,2.278,1.208,3.376,3.624c0.319,0.705,0.639,1.448,0.959,2.228l3.835-3.556
			c2.223-2.025,3.891-3.038,5.002-3.038c0.848,0,1.626,0.27,2.335,0.81c1.319,1.005,1.979,1.966,1.979,2.881
			c0,0.57-0.223,0.998-0.667,1.283c-0.083,0.045-0.229,0.15-0.438,0.315l-4.71,3.781L224.326,40.759z"/>
	</g>
	<g>
		
			<linearGradient id="SVGID_2_" gradientUnits="userSpaceOnUse" x1="-2.1465" y1="-726.404" x2="-2.1465" y2="-764.6183" gradientTransform="matrix(1 0 0 -1 25.02 -709.5459)">
			<stop  offset="0" style="stop-color:#E0E0DF"/>
			<stop  offset="0.5123" style="stop-color:#DEDEDD"/>
			<stop  offset="0.8424" style="stop-color:#A1A1A3"/>
			<stop  offset="0.9951" style="stop-color:#6B6A6F"/>
			<stop  offset="1" style="stop-color:#7A797D"/>
		</linearGradient>
		<path fill="url(#SVGID_2_)" d="M5.376,49.356c-0.236-0.435-0.323-0.858-0.26-1.271c0.063-0.412,0.246-0.952,0.552-1.62
			s0.723-1.504,1.251-2.51l1.834-3.376l2.251-4.005l2.543-4.321l2.668-4.321c-3.349,0.9-5.905,1.973-7.67,3.218
			c-0.292,0.21-0.542,0.428-0.75,0.653l-0.708,0.764c-0.431,0.465-0.854,0.698-1.271,0.698c-0.416,0-0.74-0.056-0.969-0.169
			c-0.229-0.112-0.414-0.259-0.552-0.439c-0.348-0.435-0.41-0.915-0.188-1.44c0.598-2.07,1.452-4.186,2.564-6.346
			c0.611-1.2,1.098-1.891,1.459-2.071c2.64-1.23,8.142-2.123,16.508-2.678c2.723-0.18,5.585-0.27,8.587-0.27
			c1.96,0,3.821,0.758,5.586,2.273c1.973,1.726,2.959,3.886,2.959,6.482c0,3.391-2.696,6.602-8.086,9.631
			c-2.988,1.696-5.794,2.881-8.42,3.557c-0.681,0.165-1.206,0.247-1.573,0.247s-0.786-0.052-1.251-0.157
			c-0.466-0.104-0.886-0.255-1.261-0.45c-0.89-0.479-1.334-1.058-1.334-1.732c0-0.96,0.854-1.936,2.564-2.926l4.482-2.611
			c2.653-1.53,4.293-2.64,4.919-3.331c0.625-0.69,0.938-1.256,0.938-1.699c0-0.442-0.08-0.852-0.239-1.227
			c-0.16-0.375-0.378-0.712-0.657-1.013c-0.598-0.645-1.237-0.968-1.917-0.968c-1.417,0-3.126,0.12-5.127,0.36l-2.543,4.839
			c-3.251,6.376-5.461,12.108-6.628,17.194c-0.473,1.98-2.258,2.971-5.357,2.971C7.717,51.291,6.084,50.647,5.376,49.356z"/>
		
			<linearGradient id="SVGID_3_" gradientUnits="userSpaceOnUse" x1="27.959" y1="-726.404" x2="27.959" y2="-764.6183" gradientTransform="matrix(1 0 0 -1 25.02 -709.5459)">
			<stop  offset="0" style="stop-color:#E0E0DF"/>
			<stop  offset="0.5123" style="stop-color:#DEDEDD"/>
			<stop  offset="0.8424" style="stop-color:#A1A1A3"/>
			<stop  offset="0.9951" style="stop-color:#6B6A6F"/>
			<stop  offset="1" style="stop-color:#7A797D"/>
		</linearGradient>
		<path fill="url(#SVGID_3_)" d="M39.223,43.324c-0.263,0-0.524-0.067-0.782-0.203c-0.257-0.135-0.497-0.352-0.719-0.652
			c-0.486-0.66-0.729-1.561-0.729-2.7c0-1.216,0.674-2.73,2.022-4.546c1.306-1.755,2.827-3.271,4.564-4.546
			c1.861-1.38,3.46-2.07,4.794-2.07c1.181,0,1.981,0.36,2.397,1.08l0.292,0.495c0.222,0.375,0.445,0.563,0.667,0.563
			s0.569-0.023,1.042-0.068l2.959-0.225c0.458-0.045,0.819-0.067,1.084-0.067s0.566,0.102,0.907,0.304
			c0.34,0.203,0.643,0.469,0.907,0.799c0.583,0.75,0.875,1.575,0.875,2.476c0,0.93-0.952,2.393-2.856,4.388l-1.376,1.485
			c-0.986,1.095-1.48,1.785-1.48,2.07s0.125,0.537,0.375,0.754c0.25,0.218,0.52,0.326,0.813,0.326c0.291,0,0.622-0.086,0.99-0.259
			c0.369-0.172,0.823-0.428,1.366-0.765c0.541-0.338,1.159-0.746,1.854-1.227c1.904-1.351,3.175-2.28,3.814-2.791l1.73-1.328
			c1.181-0.9,2.021-1.35,2.522-1.35c0.5,0,0.91,0.116,1.23,0.349c0.32,0.233,0.48,0.634,0.48,1.204s-0.271,1.335-0.813,2.295
			c-0.542,0.961-1.129,1.793-1.761,2.498c-0.633,0.706-1.247,1.358-1.845,1.958c-0.598,0.601-1.302,1.249-2.115,1.947
			c-0.813,0.697-1.713,1.403-2.699,2.115c-0.987,0.713-2.028,1.354-3.126,1.925c-2.487,1.305-4.773,1.958-6.857,1.958
			c-3.042,0-4.898-0.848-5.565-2.544c-0.209-0.51-0.313-1.08-0.313-1.71s0.111-1.309,0.334-2.037
			c0.222-0.728,0.514-1.451,0.875-2.172c0.722-1.425,1.576-2.686,2.564-3.78c0.833-0.946,1.251-1.508,1.251-1.688
			c0-0.284-0.149-0.465-0.448-0.54c-0.299-0.074-0.74-0.112-1.324-0.112c-0.25,0-0.786,0.39-1.605,1.169l-2.042,2.025
			C41.308,42.259,39.89,43.324,39.223,43.324z"/>
		
			<linearGradient id="SVGID_4_" gradientUnits="userSpaceOnUse" x1="54.107" y1="-726.404" x2="54.107" y2="-764.6183" gradientTransform="matrix(1 0 0 -1 25.02 -709.5459)">
			<stop  offset="0" style="stop-color:#E0E0DF"/>
			<stop  offset="0.5123" style="stop-color:#DEDEDD"/>
			<stop  offset="0.8424" style="stop-color:#A1A1A3"/>
			<stop  offset="0.9951" style="stop-color:#6B6A6F"/>
			<stop  offset="1" style="stop-color:#7A797D"/>
		</linearGradient>
		<path fill="url(#SVGID_4_)" d="M87.244,36.888c0,0.81,0.639,1.214,1.918,1.214c0.945,0,2.181-0.494,3.71-1.485l1.668-0.99
			c0.514-0.315,0.962-0.472,1.344-0.472s0.684,0.127,0.907,0.382s0.333,0.608,0.333,1.058s-0.139,0.971-0.416,1.564
			c-0.278,0.593-0.661,1.215-1.146,1.868c-0.487,0.652-1.056,1.298-1.709,1.936s-1.355,1.211-2.105,1.722
			c-1.668,1.125-3.216,1.688-4.648,1.688c-1.515,0-2.724-0.277-3.627-0.833c-0.278-0.18-0.549-0.367-0.813-0.563
			c-1.487,1.831-3.64,3.511-6.46,5.041c-3.002,1.621-5.621,2.431-7.858,2.431c-2.348,0-4.203-0.997-5.565-2.993
			c-1.098-1.62-1.647-3.263-1.647-4.929c0-2.4,1.188-4.688,3.564-6.863c1.75-1.59,3.442-2.798,5.075-3.624s3.109-1.463,4.429-1.913
			c2.793-0.945,5.307-1.418,7.545-1.418c1,0,1.893,0.207,2.678,0.619c0.785,0.413,1.366,0.829,1.74,1.249
			c0.89,0.945,1.334,2.153,1.334,3.624c0,0.435-0.042,0.773-0.125,1.013C87.285,36.453,87.244,36.678,87.244,36.888z M70.195,41.141
			l-0.021,0.068v0.022c0,0.645,0.132,1.065,0.396,1.26c0.639,0.421,1.313,0.529,2.021,0.326c0.708-0.202,1.383-0.453,2.022-0.754
			c1.584-0.734,3.015-1.665,4.293-2.79c-0.222-0.48-0.334-0.976-0.334-1.485c0-1.08,0.438-2.161,1.313-3.241
			c-1.112,0-2.612,0.563-4.502,1.688c-2.085,1.245-3.647,2.528-4.689,3.848C70.362,40.533,70.195,40.886,70.195,41.141z"/>
		
			<linearGradient id="SVGID_5_" gradientUnits="userSpaceOnUse" x1="88.3905" y1="-726.404" x2="88.3905" y2="-764.6183" gradientTransform="matrix(1 0 0 -1 25.02 -709.5459)">
			<stop  offset="0" style="stop-color:#E0E0DF"/>
			<stop  offset="0.5123" style="stop-color:#DEDEDD"/>
			<stop  offset="0.8424" style="stop-color:#A1A1A3"/>
			<stop  offset="0.9951" style="stop-color:#6B6A6F"/>
			<stop  offset="1" style="stop-color:#7A797D"/>
		</linearGradient>
		<path fill="url(#SVGID_5_)" d="M105.604,43.999c-0.487,0-0.729-0.307-0.729-0.923c0-0.585,0.156-1.178,0.469-1.777
			c0.313-0.601,0.608-1.024,0.886-1.271c0.278-0.248,0.577-0.469,0.896-0.664c0.694-0.391,1.306-0.585,1.835-0.585h12.068
			c0.222,0,0.431,0.086,0.625,0.259c0.195,0.172,0.292,0.408,0.292,0.709c0,0.6-0.185,1.234-0.552,1.901
			c-0.369,0.668-0.807,1.23-1.313,1.688c-0.508,0.458-1.025,0.687-1.553,0.687L105.604,43.999z"/>
		
			<linearGradient id="SVGID_6_" gradientUnits="userSpaceOnUse" x1="130.7835" y1="-726.404" x2="130.7835" y2="-764.6183" gradientTransform="matrix(1 0 0 -1 25.02 -709.5459)">
			<stop  offset="0" style="stop-color:#E0E0DF"/>
			<stop  offset="0.5123" style="stop-color:#DEDEDD"/>
			<stop  offset="0.8424" style="stop-color:#A1A1A3"/>
			<stop  offset="0.9951" style="stop-color:#6B6A6F"/>
			<stop  offset="1" style="stop-color:#7A797D"/>
		</linearGradient>
		<path fill="url(#SVGID_6_)" d="M166.485,45.282l0.042-1.53c0.028-0.96,0.111-2.011,0.25-3.151l0.334-2.655
			c0.069-0.63,0.139-1.2,0.209-1.71c-1.32,1.561-2.383,2.775-3.189,3.646l-2.397,2.521c-5.363,5.416-8.558,8.125-9.586,8.125
			c-1.515,0-3.106-0.353-4.774-1.059c-0.903-0.39-1.417-0.795-1.543-1.215c-0.194-0.525-0.291-1.241-0.291-2.149
			c0-0.907,0.027-1.744,0.082-2.51c0.057-0.765,0.125-1.526,0.209-2.284c0.083-0.757,0.171-1.485,0.261-2.183
			c0.09-0.698,0.163-1.309,0.22-1.834c0.139-1.185,0.166-1.778,0.082-1.778l-7.753,10.285c-3.655,4.636-5.732,7.202-6.232,7.697
			c-1.07,1.05-2.251,1.575-3.543,1.575c-0.639,0-1.167-0.173-1.584-0.518c-0.416-0.346-0.625-0.773-0.625-1.283
			c0-1.021,0.395-2.086,1.188-3.195l18.508-25.409l2.167-2.813c2.585-3.286,4.28-4.929,5.086-4.929c1.125,0,2.195,0.308,3.209,0.923
			c0.903,0.54,1.417,1.065,1.543,1.576c0.056,0.195-0.063,1.103-0.355,2.723l-0.729,4.253c-0.819,4.741-1.229,7.798-1.229,9.171
			s0.145,2.06,0.437,2.06c0.945,0,2.764-1.673,5.46-5.019l6.753-8.732c1.486-1.846,2.472-2.896,2.959-3.151
			c0.139-0.075,0.341-0.113,0.604-0.113s0.559,0.038,0.886,0.113s0.66,0.172,1.001,0.292c0.34,0.12,0.669,0.263,0.989,0.428
			c0.32,0.165,0.604,0.337,0.854,0.518c0.542,0.39,0.809,0.709,0.803,0.957c-0.006,0.248-0.066,0.78-0.177,1.598
			c-0.111,0.818-0.25,1.812-0.417,2.982c-1.153,7.757-1.755,12.258-1.803,13.503c-0.049,1.246,0.07,2.025,0.355,2.341
			c0.284,0.315,0.705,0.473,1.261,0.473c1.014,0,2.487-0.652,4.418-1.958c1.305-0.885,2.386-1.328,3.241-1.328
			s1.281,0.443,1.281,1.328c0,0.915-0.458,2.025-1.376,3.331c-1.32,1.891-3.293,3.601-5.919,5.131
			c-2.21,1.275-4.308,1.913-6.295,1.913C168.111,52.236,166.485,49.918,166.485,45.282z"/>
		
			<linearGradient id="SVGID_7_" gradientUnits="userSpaceOnUse" x1="172.825" y1="-726.4049" x2="172.825" y2="-764.6192" gradientTransform="matrix(1 0 0 -1 25.02 -709.5459)">
			<stop  offset="0" style="stop-color:#E0E0DF"/>
			<stop  offset="0.5123" style="stop-color:#DEDEDD"/>
			<stop  offset="0.8424" style="stop-color:#A1A1A3"/>
			<stop  offset="0.9951" style="stop-color:#6B6A6F"/>
			<stop  offset="1" style="stop-color:#7A797D"/>
		</linearGradient>
		<path fill="url(#SVGID_7_)" d="M198.458,49.502c-1.056,0.593-2.085,1.065-3.084,1.418s-1.984,0.528-2.949,0.528
			c-0.966,0-1.966-0.251-3.001-0.754c-1.036-0.502-1.957-1.174-2.761-2.014c-1.793-1.876-2.689-3.961-2.689-6.257
			c0-2.115,0.584-4.261,1.751-6.436c1.07-1.965,2.431-3.616,4.084-4.951c1.654-1.335,3.189-2.003,4.607-2.003
			c2.028,0,3.112,0.615,3.251,1.845c0.042,0.375,0.063,0.81,0.063,1.305c0,0.495-0.107,1.062-0.323,1.699
			c-0.216,0.638-0.494,1.275-0.833,1.913c-0.342,0.638-0.716,1.26-1.126,1.868c-0.409,0.607-0.803,1.159-1.178,1.654
			c-0.723,0.945-1.299,1.628-1.729,2.048c0,0.51,0.354,1.035,1.063,1.575c0.667,0.511,1.233,0.766,1.699,0.766
			s1.014-0.12,1.646-0.36s1.285-0.563,1.96-0.968c0.674-0.405,1.362-0.87,2.063-1.396c0.701-0.524,1.393-1.065,2.074-1.62
			l3.814-3.218c1.514-1.185,2.744-1.778,3.689-1.778c0.375,0,0.664,0.146,0.865,0.439c0.201,0.292,0.302,0.634,0.302,1.024
			c0,0.391-0.181,0.927-0.541,1.609c-0.362,0.683-0.858,1.437-1.491,2.262c-0.632,0.825-1.372,1.688-2.219,2.588
			s-1.764,1.785-2.751,2.655s-2.01,1.699-3.074,2.487C200.572,48.219,199.513,48.909,198.458,49.502z M203.71,24.724
			c-0.403,0.368-0.841,0.668-1.313,0.9c-0.473,0.233-1,0.349-1.584,0.349s-1.146-0.104-1.688-0.315
			c-0.542-0.21-1.014-0.502-1.417-0.878c-0.876-0.81-1.313-1.845-1.313-3.105c0-1.936,1.501-3.376,4.502-4.321
			c1.014-0.33,1.848-0.495,2.501-0.495s1.142,0.079,1.469,0.236s0.594,0.364,0.803,0.619c0.417,0.51,0.626,1.032,0.626,1.564
			c0,0.533-0.06,1.017-0.178,1.452s-0.288,0.885-0.511,1.35s-0.494,0.931-0.813,1.396C204.473,23.94,204.112,24.356,203.71,24.724z"
			/>
		
			<linearGradient id="SVGID_8_" gradientUnits="userSpaceOnUse" x1="198.46" y1="-726.404" x2="198.46" y2="-764.6183" gradientTransform="matrix(1 0 0 -1 25.02 -709.5459)">
			<stop  offset="0" style="stop-color:#E0E0DF"/>
			<stop  offset="0.5123" style="stop-color:#DEDEDD"/>
			<stop  offset="0.8424" style="stop-color:#A1A1A3"/>
			<stop  offset="0.9951" style="stop-color:#6B6A6F"/>
			<stop  offset="1" style="stop-color:#7A797D"/>
		</linearGradient>
		<path fill="url(#SVGID_8_)" d="M224.322,40.759c1,1.71,2.063,2.565,3.188,2.565c1.139,0,3.287-1.125,6.441-3.376l2.272-1.666
			c0.68-0.524,1.251-0.979,1.709-1.36c0.458-0.383,0.854-0.709,1.187-0.979c0.751-0.63,1.612-0.945,2.586-0.945
			c0.306,0,0.6,0.098,0.886,0.292c0.284,0.195,0.427,0.461,0.427,0.799s-0.045,0.675-0.135,1.013
			c-0.091,0.338-0.226,0.687-0.406,1.046c-0.389,0.855-0.762,1.501-1.115,1.936c-0.354,0.436-0.733,0.871-1.136,1.306
			c-0.402,0.436-0.892,0.938-1.469,1.508c-0.576,0.57-1.237,1.189-1.98,1.856c-0.743,0.668-1.539,1.332-2.386,1.992
			s-1.74,1.298-2.678,1.913c-0.938,0.615-1.9,1.155-2.887,1.62c-2.195,1.035-4.168,1.553-5.919,1.553
			c-1.931,0-3.515-1.14-4.752-3.421c-0.362-0.675-0.694-1.38-1-2.115l-6.461,4.996c-1.028,0.87-1.953,1.306-2.772,1.306
			c-0.444,0-0.826-0.136-1.145-0.405c-0.612-0.511-0.918-1.058-0.918-1.643c0-0.586,0.101-1.024,0.303-1.317
			c0.202-0.292,0.462-0.588,0.781-0.889l8.213-7.629c-0.626-1.576-1.258-2.363-1.896-2.363c-0.932,0-1.876,0.42-2.835,1.26
			l-0.918,0.788c-1.305,1.155-2.465,1.732-3.481,1.732c-0.402,0-0.771-0.135-1.105-0.404c-0.653-0.525-0.979-1.133-0.979-1.823
			s0.702-1.666,2.106-2.926l0.813-0.742c0.361-0.36,0.729-0.712,1.104-1.058l4.273-3.759c2.056-1.725,3.745-2.588,5.065-2.588
			c1.153,0,2.279,1.208,3.376,3.624c0.319,0.705,0.64,1.448,0.959,2.228l3.835-3.556c2.222-2.025,3.89-3.038,5.002-3.038
			c0.847,0,1.625,0.27,2.334,0.81c1.32,1.005,1.98,1.966,1.98,2.881c0,0.57-0.222,0.998-0.667,1.283
			c-0.083,0.045-0.229,0.15-0.438,0.315l-4.709,3.781L224.322,40.759z"/>
	</g>
</g>
</svg>
