<?xml version="1.0" encoding="utf-8"?>
<!-- Generator: Adobe Illustrator 17.0.0, SVG Export Plug-In . SVG Version: 6.00 Build 0)  -->
<!DOCTYPE svg PUBLIC "-//W3C//DTD SVG 1.1//EN" "http://www.w3.org/Graphics/SVG/1.1/DTD/svg11.dtd">
<svg version="1.1" id="Camada_1" xmlns="http://www.w3.org/2000/svg" xmlns:xlink="http://www.w3.org/1999/xlink" x="0px" y="0px"
	 width="246.333px" height="77.667px" viewBox="0 0 246.333 77.667" enable-background="new 0 0 246.333 77.667"
	 xml:space="preserve">
<g>
	<g>
		<path d="M245.344,38.482c0,5.299-1.215,10.318-3.643,15.054c-2.43,4.738-6.018,8.893-10.77,12.464
			c-4.75,3.573-10.638,6.404-17.659,8.49c-7.023,2.089-15.073,3.131-24.152,3.131c-5.808,0-11.562-0.621-17.263-1.867
			c-5.702-1.244-11.352-2.909-16.947-4.998c-5.598-2.087-11.141-4.496-16.629-7.226c-5.491-2.729-10.876-5.619-16.155-8.671
			c-5.281,2.971-10.666,5.822-16.154,8.55c-5.491,2.73-11.035,5.139-16.63,7.226c-5.598,2.089-11.22,3.775-16.867,5.058
			c-5.65,1.285-11.378,1.927-17.184,1.927c-8.552,0-16.155-0.963-22.807-2.89c-6.652-1.927-12.25-4.556-16.788-7.888
			c-4.541-3.331-7.998-7.266-10.374-11.802c-2.375-4.535-3.563-9.494-3.563-14.874c0-5.137,1.212-10.075,3.643-14.813
			c2.428-4.736,6.019-8.87,10.77-12.404c4.751-3.532,10.611-6.362,17.58-8.49C40.72,2.334,48.797,1.27,57.983,1.27
			c5.489,0,11.007,0.602,16.551,1.807c5.543,1.204,11.086,2.851,16.629,4.938c5.543,2.089,11.086,4.498,16.63,7.226
			c5.543,2.73,11.007,5.582,16.392,8.551c5.278-2.89,10.663-5.7,16.154-8.43c5.489-2.729,11.086-5.137,16.788-7.226
			c5.702-2.087,11.456-3.752,17.263-4.998c5.806-1.244,11.666-1.867,17.58-1.867c8.553,0,16.127,0.945,22.728,2.83
			c6.597,1.887,12.168,4.498,16.709,7.828c4.537,3.333,7.998,7.267,10.373,11.802C244.156,28.267,245.344,33.184,245.344,38.482z
			 M97.578,39.566c-3.697-2.087-7.365-4.074-11.007-5.961c-3.643-1.885-7.154-3.553-10.532-4.998
			c-3.38-1.445-6.707-2.569-9.978-3.372c-3.274-0.802-6.493-1.205-9.661-1.205c-3.381,0-6.39,0.361-9.028,1.084
			c-2.641,0.723-4.885,1.767-6.731,3.131c-1.849,1.366-3.247,2.992-4.197,4.877c-0.95,1.887-1.425,3.955-1.425,6.202
			c0,4.898,1.821,8.731,5.464,11.501c3.643,2.77,9,4.155,16.076,4.155c2.955,0,6.018-0.4,9.186-1.204
			c3.167-0.802,6.493-1.906,9.978-3.312c3.484-1.404,7.048-3.029,10.69-4.877C90.055,43.742,93.777,41.734,97.578,39.566z
			 M212.085,39.446c0-2.488-0.53-4.697-1.584-6.624c-1.057-1.927-2.509-3.553-4.355-4.877c-1.849-1.325-4.118-2.307-6.81-2.95
			c-2.692-0.642-5.677-0.964-8.948-0.964c-3.168,0-6.362,0.403-9.582,1.205c-3.222,0.803-6.573,1.867-10.057,3.191
			s-7.048,2.932-10.69,4.817c-3.643,1.888-7.419,3.875-11.324,5.961c4.012,2.168,7.84,4.196,11.482,6.082
			c3.643,1.887,7.207,3.553,10.691,4.998c3.484,1.445,6.862,2.589,10.136,3.433c3.271,0.843,6.439,1.264,9.502,1.264
			c3.484,0,6.545-0.4,9.186-1.204c2.638-0.802,4.882-1.886,6.731-3.251c1.846-1.364,3.247-2.97,4.197-4.817
			C211.61,43.862,212.085,41.776,212.085,39.446z"/>
	</g>
	<g>
		<linearGradient id="SVGID_1_" gradientUnits="userSpaceOnUse" x1="123.5515" y1="1.2695" x2="123.5515" y2="77.6226">
			<stop  offset="0" style="stop-color:#E0E0DF"/>
			<stop  offset="0.1077" style="stop-color:#DEDEDD"/>
			<stop  offset="0.2696" style="stop-color:#D3D3D4"/>
			<stop  offset="0.4657" style="stop-color:#BFBEC1"/>
			<stop  offset="0.6885" style="stop-color:#A1A0A4"/>
			<stop  offset="0.9309" style="stop-color:#7A797D"/>
			<stop  offset="1" style="stop-color:#6B6A6F"/>
		</linearGradient>
		<path fill="url(#SVGID_1_)" d="M245.344,38.482c0,5.299-1.215,10.318-3.643,15.054c-2.43,4.738-6.018,8.893-10.77,12.464
			c-4.75,3.573-10.638,6.404-17.659,8.49c-7.023,2.089-15.073,3.131-24.152,3.131c-5.808,0-11.562-0.621-17.263-1.867
			c-5.702-1.244-11.352-2.909-16.947-4.998c-5.598-2.087-11.141-4.496-16.629-7.226c-5.491-2.729-10.876-5.619-16.155-8.671
			c-5.281,2.971-10.666,5.822-16.154,8.55c-5.491,2.73-11.035,5.139-16.63,7.226c-5.598,2.089-11.22,3.775-16.867,5.058
			c-5.65,1.285-11.378,1.927-17.184,1.927c-8.552,0-16.155-0.963-22.807-2.89c-6.652-1.927-12.25-4.556-16.788-7.888
			c-4.541-3.331-7.998-7.266-10.374-11.802c-2.375-4.535-3.563-9.494-3.563-14.874c0-5.137,1.212-10.075,3.643-14.813
			c2.428-4.736,6.019-8.87,10.77-12.404c4.751-3.532,10.611-6.362,17.58-8.49C40.72,2.334,48.797,1.27,57.983,1.27
			c5.489,0,11.007,0.602,16.551,1.807c5.543,1.204,11.086,2.851,16.629,4.938c5.543,2.089,11.086,4.498,16.63,7.226
			c5.543,2.73,11.007,5.582,16.392,8.551c5.278-2.89,10.663-5.7,16.154-8.43c5.489-2.729,11.086-5.137,16.788-7.226
			c5.702-2.087,11.456-3.752,17.263-4.998c5.806-1.244,11.666-1.867,17.58-1.867c8.553,0,16.127,0.945,22.728,2.83
			c6.597,1.887,12.168,4.498,16.709,7.828c4.537,3.333,7.998,7.267,10.373,11.802C244.156,28.267,245.344,33.184,245.344,38.482z
			 M97.578,39.566c-3.697-2.087-7.365-4.074-11.007-5.961c-3.643-1.885-7.154-3.553-10.532-4.998
			c-3.38-1.445-6.707-2.569-9.978-3.372c-3.274-0.802-6.493-1.205-9.661-1.205c-3.381,0-6.39,0.361-9.028,1.084
			c-2.641,0.723-4.885,1.767-6.731,3.131c-1.849,1.366-3.247,2.992-4.197,4.877c-0.95,1.887-1.425,3.955-1.425,6.202
			c0,4.898,1.821,8.731,5.464,11.501c3.643,2.77,9,4.155,16.076,4.155c2.955,0,6.018-0.4,9.186-1.204
			c3.167-0.802,6.493-1.906,9.978-3.312c3.484-1.404,7.048-3.029,10.69-4.877C90.055,43.742,93.777,41.734,97.578,39.566z
			 M212.085,39.446c0-2.488-0.53-4.697-1.584-6.624c-1.057-1.927-2.509-3.553-4.355-4.877c-1.849-1.325-4.118-2.307-6.81-2.95
			c-2.692-0.642-5.677-0.964-8.948-0.964c-3.168,0-6.362,0.403-9.582,1.205c-3.222,0.803-6.573,1.867-10.057,3.191
			s-7.048,2.932-10.69,4.817c-3.643,1.888-7.419,3.875-11.324,5.961c4.012,2.168,7.84,4.196,11.482,6.082
			c3.643,1.887,7.207,3.553,10.691,4.998c3.484,1.445,6.862,2.589,10.136,3.433c3.271,0.843,6.439,1.264,9.502,1.264
			c3.484,0,6.545-0.4,9.186-1.204c2.638-0.802,4.882-1.886,6.731-3.251c1.846-1.364,3.247-2.97,4.197-4.817
			C211.61,43.862,212.085,41.776,212.085,39.446z"/>
	</g>
	<g>
		<path fill="none" stroke="#000000" stroke-width="0.25" stroke-miterlimit="10" d="M245.344,38.482
			c0,5.299-1.215,10.318-3.643,15.054c-2.43,4.738-6.018,8.893-10.77,12.464c-4.75,3.573-10.638,6.404-17.659,8.49
			c-7.023,2.089-15.073,3.131-24.152,3.131c-5.808,0-11.562-0.621-17.263-1.867c-5.702-1.244-11.352-2.909-16.947-4.998
			c-5.598-2.087-11.141-4.496-16.629-7.226c-5.491-2.729-10.876-5.619-16.155-8.671c-5.281,2.971-10.666,5.822-16.154,8.55
			c-5.491,2.73-11.035,5.139-16.63,7.226c-5.598,2.089-11.22,3.775-16.867,5.058c-5.65,1.285-11.378,1.927-17.184,1.927
			c-8.552,0-16.155-0.963-22.807-2.89c-6.652-1.927-12.25-4.556-16.788-7.888c-4.541-3.331-7.998-7.266-10.374-11.802
			c-2.375-4.535-3.563-9.494-3.563-14.874c0-5.137,1.212-10.075,3.643-14.813c2.428-4.736,6.019-8.87,10.77-12.404
			c4.751-3.532,10.611-6.362,17.58-8.49C40.72,2.334,48.797,1.27,57.983,1.27c5.489,0,11.007,0.602,16.551,1.807
			c5.543,1.204,11.086,2.851,16.629,4.938c5.543,2.089,11.086,4.498,16.63,7.226c5.543,2.73,11.007,5.582,16.392,8.551
			c5.278-2.89,10.663-5.7,16.154-8.43c5.489-2.729,11.086-5.137,16.788-7.226c5.702-2.087,11.456-3.752,17.263-4.998
			c5.806-1.244,11.666-1.867,17.58-1.867c8.553,0,16.127,0.945,22.728,2.83c6.597,1.887,12.168,4.498,16.709,7.828
			c4.537,3.333,7.998,7.267,10.373,11.802C244.156,28.267,245.344,33.184,245.344,38.482z M97.578,39.566
			c-3.697-2.087-7.365-4.074-11.007-5.961c-3.643-1.885-7.154-3.553-10.532-4.998c-3.38-1.445-6.707-2.569-9.978-3.372
			c-3.274-0.802-6.493-1.205-9.661-1.205c-3.381,0-6.39,0.361-9.028,1.084c-2.641,0.723-4.885,1.767-6.731,3.131
			c-1.849,1.366-3.247,2.992-4.197,4.877c-0.95,1.887-1.425,3.955-1.425,6.202c0,4.898,1.821,8.731,5.464,11.501
			c3.643,2.77,9,4.155,16.076,4.155c2.955,0,6.018-0.4,9.186-1.204c3.167-0.802,6.493-1.906,9.978-3.312
			c3.484-1.404,7.048-3.029,10.69-4.877C90.055,43.742,93.777,41.734,97.578,39.566z M212.085,39.446
			c0-2.488-0.53-4.697-1.584-6.624c-1.057-1.927-2.509-3.553-4.355-4.877c-1.849-1.325-4.118-2.307-6.81-2.95
			c-2.692-0.642-5.677-0.964-8.948-0.964c-3.168,0-6.362,0.403-9.582,1.205c-3.222,0.803-6.573,1.867-10.057,3.191
			s-7.048,2.932-10.69,4.817c-3.643,1.888-7.419,3.875-11.324,5.961c4.012,2.168,7.84,4.196,11.482,6.082
			c3.643,1.887,7.207,3.553,10.691,4.998c3.484,1.445,6.862,2.589,10.136,3.433c3.271,0.843,6.439,1.264,9.502,1.264
			c3.484,0,6.545-0.4,9.186-1.204c2.638-0.802,4.882-1.886,6.731-3.251c1.846-1.364,3.247-2.97,4.197-4.817
			C211.61,43.862,212.085,41.776,212.085,39.446z"/>
	</g>
</g>
<g>
	<path fill="#C23235" stroke="#000000" stroke-miterlimit="10" d="M44.797,33.066c0,4.339-3.262,8.063-9.786,11.17
		c-4.355,2.096-9.54,3.687-15.553,4.771l-2.919,7.652H7.805l8.734-22.56h8.662l-4.116,10.576c3.095-0.645,5.838-1.649,8.231-3.012
		c3.333-1.92,5.064-4.156,5.192-6.707c0.08-1.642-0.519-2.719-1.795-3.232c-0.766-0.308-2.146-0.461-4.139-0.461H4.12l3.733-5.541
		h24.646c3.605,0,6.357,0.41,8.255,1.231C43.449,28.112,44.797,30.15,44.797,33.066z"/>
	<path fill="#C23235" stroke="#000000" stroke-miterlimit="10" d="M68.893,53.142c0,1.026-0.614,1.891-1.842,2.595
		c-1.085,0.616-2.218,0.923-3.398,0.923h-9.165c-2.425,0-3.637-0.923-3.637-2.771c0-0.469,0.104-0.975,0.311-1.517l2.704-7.146
		H48.77l-2.656,6.311c-0.447,1.07-1.412,1.605-2.896,1.605h-2.536l3.135-7.916c-0.99-0.205-1.791-0.663-2.405-1.374
		c-0.614-0.711-0.921-1.528-0.921-2.452c0-1.686,0.853-2.991,2.56-3.914c1.42-0.762,3.111-1.144,5.073-1.144H52l-2.01,5.365h13.232
		l-4.355,11.434H68.893z"/>
	<path fill="#C23235" stroke="#000000" stroke-miterlimit="10" d="M109.618,41.708c-0.638,2.346-2.552,3.518-5.743,3.518H88.896
		c0.527,0.323,0.958,0.913,1.292,1.77c0.335,0.858,0.47,1.602,0.407,2.232c-0.224,2.448-1.396,4.369-3.518,5.761
		c-2.026,1.334-4.658,2.008-7.896,2.023c-3.765,0.029-6.66-0.652-8.686-2.045c-1.802-1.231-2.704-2.851-2.704-4.86
		c0-0.396,0.04-0.792,0.12-1.187c0.415-2.213,1.611-3.951,3.589-5.211c2.106-1.333,4.913-2.001,8.423-2.001H109.618z M83.537,45.226
		h-5.479l-2.154,5.629c-0.112,0.293-0.167,0.572-0.167,0.836c0,1.261,1.276,1.891,3.829,1.891c0.303,0,0.566-0.007,0.79-0.022
		L83.537,45.226z"/>
	<path fill="#C23235" stroke="#000000" stroke-miterlimit="10" d="M135.436,43.863l-2.105,5.585h-16.127l2.106-5.585H135.436z"/>
	<path fill="#C23235" stroke="#000000" stroke-miterlimit="10" d="M196.38,53.142c-0.67,2.346-2.888,3.518-6.652,3.518h-8.59
		c-2.68,0-4.02-0.711-4.02-2.133c0-0.498,0.167-1.151,0.502-1.957l3.972-9.499l-11.868,11.962c-1.276,1.305-2.672,1.957-4.188,1.957
		c-0.287,0-0.59-0.022-0.909-0.066c-1.818-0.19-2.728-1.026-2.728-2.506c0-0.572,0.144-1.188,0.431-1.847l5.886-13.962
		l-14.764,16.381c-0.989,1.114-2.44,1.671-4.355,1.671h-4.857l9.667-25.396h-13.28l3.613-5.541h15.983
		c2.202,0,3.302,0.74,3.302,2.221c0,0.572-0.152,1.261-0.455,2.067l-5.145,13.633l10.289-10.708
		c1.308-1.377,2.313-2.272,3.015-2.683c1.165-0.674,2.672-1.011,4.522-1.011c0.526,0,1.077,0.168,1.651,0.505
		c0.877,0.528,1.316,1.313,1.316,2.353c0,0.645-0.176,1.371-0.527,2.177l-4.642,11.082l9.212-8.509
		c1.308-1.202,2.178-1.927,2.608-2.177c0.75-0.396,1.826-0.586,3.23-0.572c0.558,0,1.148,0.19,1.771,0.572
		c0.957,0.572,1.436,1.407,1.436,2.506c0,0.631-0.16,1.327-0.479,2.089l-5.719,13.875H196.38z"/>
	<path fill="#C23235" stroke="#000000" stroke-miterlimit="10" d="M214.565,53.142c-0.415,1.29-1.276,2.243-2.584,2.858
		c-0.941,0.44-1.962,0.66-3.063,0.66h-9.451c-2.282,0-3.422-0.879-3.422-2.639c0-0.498,0.112-1.033,0.335-1.605l4.164-10.708h8.686
		l-4.427,11.434H214.565z M212.843,32.693c0,1.466-0.619,2.712-1.854,3.738c-1.236,1.026-2.724,1.54-4.462,1.54
		c-1.771,0-3.274-0.513-4.511-1.54c-1.236-1.026-1.854-2.272-1.854-3.738c0-1.451,0.618-2.69,1.854-3.716
		c1.236-1.026,2.74-1.539,4.511-1.539c1.738,0,3.226,0.513,4.462,1.539C212.224,30.003,212.843,31.242,212.843,32.693z"/>
	<path fill="#C23235" stroke="#000000" stroke-miterlimit="10" d="M239.163,41.708l-9.451,6.354l6.221,8.598h-9.714l-3.088-4.178
		l-6.269,4.178h-7.489l11.223-7.608l-5.432-7.344h9.978l2.058,2.836l4.163-2.836H239.163z"/>
</g>
<g>
	<g>
		<path d="M44.797,29.553c0,4.339-3.262,8.063-9.786,11.17c-4.355,2.096-9.54,3.687-15.553,4.771l-2.919,7.652H7.805l8.734-22.56
			h8.662l-4.116,10.576c3.095-0.645,5.838-1.649,8.231-3.012c3.333-1.92,5.064-4.156,5.192-6.707
			c0.08-1.642-0.519-2.719-1.795-3.232c-0.766-0.308-2.146-0.461-4.139-0.461H4.12l3.733-5.541h24.646
			c3.605,0,6.357,0.41,8.255,1.231C43.449,24.598,44.797,26.636,44.797,29.553z"/>
		<path d="M68.893,49.628c0,1.026-0.614,1.891-1.842,2.595c-1.085,0.616-2.218,0.923-3.398,0.923h-9.165
			c-2.425,0-3.637-0.923-3.637-2.771c0-0.469,0.104-0.975,0.311-1.517l2.704-7.146H48.77l-2.656,6.311
			c-0.447,1.07-1.412,1.605-2.896,1.605h-2.536l3.135-7.916c-0.99-0.205-1.791-0.663-2.405-1.374
			c-0.614-0.711-0.921-1.528-0.921-2.452c0-1.686,0.853-2.991,2.56-3.914c1.42-0.762,3.111-1.144,5.073-1.144H52l-2.01,5.365h13.232
			l-4.355,11.434H68.893z"/>
		<path d="M109.618,38.194c-0.638,2.346-2.552,3.518-5.743,3.518H88.896c0.527,0.323,0.958,0.913,1.292,1.77
			c0.335,0.858,0.47,1.602,0.407,2.232c-0.224,2.448-1.396,4.369-3.518,5.761c-2.026,1.334-4.658,2.008-7.896,2.023
			c-3.765,0.029-6.66-0.652-8.686-2.045c-1.802-1.231-2.704-2.851-2.704-4.86c0-0.396,0.04-0.792,0.12-1.187
			c0.415-2.213,1.611-3.951,3.589-5.211c2.106-1.333,4.913-2.001,8.423-2.001H109.618z M83.537,41.712h-5.479l-2.154,5.629
			c-0.112,0.293-0.167,0.572-0.167,0.836c0,1.261,1.276,1.891,3.829,1.891c0.303,0,0.566-0.007,0.79-0.022L83.537,41.712z"/>
		<path d="M135.436,40.349l-2.105,5.585h-16.127l2.106-5.585H135.436z"/>
		<path d="M196.38,49.628c-0.67,2.346-2.888,3.518-6.652,3.518h-8.59c-2.68,0-4.02-0.711-4.02-2.133
			c0-0.498,0.167-1.151,0.502-1.957l3.972-9.499L169.725,51.52c-1.276,1.305-2.672,1.957-4.188,1.957
			c-0.287,0-0.59-0.022-0.909-0.066c-1.818-0.19-2.728-1.026-2.728-2.506c0-0.572,0.144-1.188,0.431-1.847l5.886-13.962
			l-14.764,16.381c-0.989,1.114-2.44,1.671-4.355,1.671h-4.857l9.667-25.396h-13.28l3.613-5.541h15.983
			c2.202,0,3.302,0.74,3.302,2.221c0,0.572-0.152,1.261-0.455,2.067l-5.145,13.633l10.289-10.708
			c1.308-1.377,2.313-2.272,3.015-2.683c1.165-0.674,2.672-1.011,4.522-1.011c0.526,0,1.077,0.168,1.651,0.505
			c0.877,0.528,1.316,1.313,1.316,2.353c0,0.645-0.176,1.371-0.527,2.177l-4.642,11.082l9.212-8.509
			c1.308-1.202,2.178-1.927,2.608-2.177c0.75-0.396,1.826-0.586,3.23-0.572c0.558,0,1.148,0.19,1.771,0.572
			c0.957,0.572,1.436,1.407,1.436,2.506c0,0.631-0.16,1.327-0.479,2.089l-5.719,13.875H196.38z"/>
		<path d="M214.565,49.628c-0.415,1.29-1.276,2.243-2.584,2.858c-0.941,0.44-1.962,0.66-3.063,0.66h-9.451
			c-2.282,0-3.422-0.879-3.422-2.639c0-0.498,0.112-1.033,0.335-1.605l4.164-10.708h8.686l-4.427,11.434H214.565z M212.843,29.179
			c0,1.466-0.619,2.712-1.854,3.738c-1.236,1.026-2.724,1.54-4.462,1.54c-1.771,0-3.274-0.513-4.511-1.54
			c-1.236-1.026-1.854-2.272-1.854-3.738c0-1.451,0.618-2.69,1.854-3.716c1.236-1.026,2.74-1.539,4.511-1.539
			c1.738,0,3.226,0.513,4.462,1.539C212.224,26.489,212.843,27.728,212.843,29.179z"/>
		<path d="M239.163,38.194l-9.451,6.354l6.221,8.598h-9.714l-3.088-4.178l-6.269,4.178h-7.489l11.223-7.608l-5.432-7.344h9.978
			l2.058,2.836l4.163-2.836H239.163z"/>
	</g>
	<g>
		<linearGradient id="SVGID_2_" gradientUnits="userSpaceOnUse" x1="121.6416" y1="22.209" x2="121.6416" y2="53.4994">
			<stop  offset="0" style="stop-color:#D1D1D1"/>
			<stop  offset="0.5186" style="stop-color:#D0CFD0"/>
			<stop  offset="0.7055" style="stop-color:#C9C9C9"/>
			<stop  offset="0.8386" style="stop-color:#BFBEBE"/>
			<stop  offset="0.9455" style="stop-color:#B0AFAF"/>
			<stop  offset="1" style="stop-color:#A6A5A5"/>
		</linearGradient>
		<path fill="url(#SVGID_2_)" d="M44.797,29.553c0,4.339-3.262,8.063-9.786,11.17c-4.355,2.096-9.54,3.687-15.553,4.771
			l-2.919,7.652H7.805l8.734-22.56h8.662l-4.116,10.576c3.095-0.645,5.838-1.649,8.231-3.012c3.333-1.92,5.064-4.156,5.192-6.707
			c0.08-1.642-0.519-2.719-1.795-3.232c-0.766-0.308-2.146-0.461-4.139-0.461H4.12l3.733-5.541h24.646
			c3.605,0,6.357,0.41,8.255,1.231C43.449,24.598,44.797,26.636,44.797,29.553z"/>
		<linearGradient id="SVGID_3_" gradientUnits="userSpaceOnUse" x1="121.6416" y1="22.209" x2="121.6416" y2="53.4994">
			<stop  offset="0" style="stop-color:#D1D1D1"/>
			<stop  offset="0.5186" style="stop-color:#D0CFD0"/>
			<stop  offset="0.7055" style="stop-color:#C9C9C9"/>
			<stop  offset="0.8386" style="stop-color:#BFBEBE"/>
			<stop  offset="0.9455" style="stop-color:#B0AFAF"/>
			<stop  offset="1" style="stop-color:#A6A5A5"/>
		</linearGradient>
		<path fill="url(#SVGID_3_)" d="M68.893,49.628c0,1.026-0.614,1.891-1.842,2.595c-1.085,0.616-2.218,0.923-3.398,0.923h-9.165
			c-2.425,0-3.637-0.923-3.637-2.771c0-0.469,0.104-0.975,0.311-1.517l2.704-7.146H48.77l-2.656,6.311
			c-0.447,1.07-1.412,1.605-2.896,1.605h-2.536l3.135-7.916c-0.99-0.205-1.791-0.663-2.405-1.374
			c-0.614-0.711-0.921-1.528-0.921-2.452c0-1.686,0.853-2.991,2.56-3.914c1.42-0.762,3.111-1.144,5.073-1.144H52l-2.01,5.365h13.232
			l-4.355,11.434H68.893z"/>
		<linearGradient id="SVGID_4_" gradientUnits="userSpaceOnUse" x1="121.6416" y1="22.209" x2="121.6416" y2="53.4994">
			<stop  offset="0" style="stop-color:#D1D1D1"/>
			<stop  offset="0.5186" style="stop-color:#D0CFD0"/>
			<stop  offset="0.7055" style="stop-color:#C9C9C9"/>
			<stop  offset="0.8386" style="stop-color:#BFBEBE"/>
			<stop  offset="0.9455" style="stop-color:#B0AFAF"/>
			<stop  offset="1" style="stop-color:#A6A5A5"/>
		</linearGradient>
		<path fill="url(#SVGID_4_)" d="M109.618,38.194c-0.638,2.346-2.552,3.518-5.743,3.518H88.896c0.527,0.323,0.958,0.913,1.292,1.77
			c0.335,0.858,0.47,1.602,0.407,2.232c-0.224,2.448-1.396,4.369-3.518,5.761c-2.026,1.334-4.658,2.008-7.896,2.023
			c-3.765,0.029-6.66-0.652-8.686-2.045c-1.802-1.231-2.704-2.851-2.704-4.86c0-0.396,0.04-0.792,0.12-1.187
			c0.415-2.213,1.611-3.951,3.589-5.211c2.106-1.333,4.913-2.001,8.423-2.001H109.618z M83.537,41.712h-5.479l-2.154,5.629
			c-0.112,0.293-0.167,0.572-0.167,0.836c0,1.261,1.276,1.891,3.829,1.891c0.303,0,0.566-0.007,0.79-0.022L83.537,41.712z"/>
		<linearGradient id="SVGID_5_" gradientUnits="userSpaceOnUse" x1="121.6416" y1="22.209" x2="121.6416" y2="53.4994">
			<stop  offset="0" style="stop-color:#D1D1D1"/>
			<stop  offset="0.5186" style="stop-color:#D0CFD0"/>
			<stop  offset="0.7055" style="stop-color:#C9C9C9"/>
			<stop  offset="0.8386" style="stop-color:#BFBEBE"/>
			<stop  offset="0.9455" style="stop-color:#B0AFAF"/>
			<stop  offset="1" style="stop-color:#A6A5A5"/>
		</linearGradient>
		<path fill="url(#SVGID_5_)" d="M135.436,40.349l-2.105,5.585h-16.127l2.106-5.585H135.436z"/>
		<linearGradient id="SVGID_6_" gradientUnits="userSpaceOnUse" x1="121.6416" y1="22.209" x2="121.6416" y2="53.4994">
			<stop  offset="0" style="stop-color:#D1D1D1"/>
			<stop  offset="0.5186" style="stop-color:#D0CFD0"/>
			<stop  offset="0.7055" style="stop-color:#C9C9C9"/>
			<stop  offset="0.8386" style="stop-color:#BFBEBE"/>
			<stop  offset="0.9455" style="stop-color:#B0AFAF"/>
			<stop  offset="1" style="stop-color:#A6A5A5"/>
		</linearGradient>
		<path fill="url(#SVGID_6_)" d="M196.38,49.628c-0.67,2.346-2.888,3.518-6.652,3.518h-8.59c-2.68,0-4.02-0.711-4.02-2.133
			c0-0.498,0.167-1.151,0.502-1.957l3.972-9.499L169.725,51.52c-1.276,1.305-2.672,1.957-4.188,1.957
			c-0.287,0-0.59-0.022-0.909-0.066c-1.818-0.19-2.728-1.026-2.728-2.506c0-0.572,0.144-1.188,0.431-1.847l5.886-13.962
			l-14.764,16.381c-0.989,1.114-2.44,1.671-4.355,1.671h-4.857l9.667-25.396h-13.28l3.613-5.541h15.983
			c2.202,0,3.302,0.74,3.302,2.221c0,0.572-0.152,1.261-0.455,2.067l-5.145,13.633l10.289-10.708
			c1.308-1.377,2.313-2.272,3.015-2.683c1.165-0.674,2.672-1.011,4.522-1.011c0.526,0,1.077,0.168,1.651,0.505
			c0.877,0.528,1.316,1.313,1.316,2.353c0,0.645-0.176,1.371-0.527,2.177l-4.642,11.082l9.212-8.509
			c1.308-1.202,2.178-1.927,2.608-2.177c0.75-0.396,1.826-0.586,3.23-0.572c0.558,0,1.148,0.19,1.771,0.572
			c0.957,0.572,1.436,1.407,1.436,2.506c0,0.631-0.16,1.327-0.479,2.089l-5.719,13.875H196.38z"/>
		<linearGradient id="SVGID_7_" gradientUnits="userSpaceOnUse" x1="121.6416" y1="22.209" x2="121.6416" y2="53.4994">
			<stop  offset="0" style="stop-color:#D1D1D1"/>
			<stop  offset="0.5186" style="stop-color:#D0CFD0"/>
			<stop  offset="0.7055" style="stop-color:#C9C9C9"/>
			<stop  offset="0.8386" style="stop-color:#BFBEBE"/>
			<stop  offset="0.9455" style="stop-color:#B0AFAF"/>
			<stop  offset="1" style="stop-color:#A6A5A5"/>
		</linearGradient>
		<path fill="url(#SVGID_7_)" d="M214.565,49.628c-0.415,1.29-1.276,2.243-2.584,2.858c-0.941,0.44-1.962,0.66-3.063,0.66h-9.451
			c-2.282,0-3.422-0.879-3.422-2.639c0-0.498,0.112-1.033,0.335-1.605l4.164-10.708h8.686l-4.427,11.434H214.565z M212.843,29.179
			c0,1.466-0.619,2.712-1.854,3.738c-1.236,1.026-2.724,1.54-4.462,1.54c-1.771,0-3.274-0.513-4.511-1.54
			c-1.236-1.026-1.854-2.272-1.854-3.738c0-1.451,0.618-2.69,1.854-3.716c1.236-1.026,2.74-1.539,4.511-1.539
			c1.738,0,3.226,0.513,4.462,1.539C212.224,26.489,212.843,27.728,212.843,29.179z"/>
		<linearGradient id="SVGID_8_" gradientUnits="userSpaceOnUse" x1="121.6416" y1="22.209" x2="121.6416" y2="53.4994">
			<stop  offset="0" style="stop-color:#D1D1D1"/>
			<stop  offset="0.5186" style="stop-color:#D0CFD0"/>
			<stop  offset="0.7055" style="stop-color:#C9C9C9"/>
			<stop  offset="0.8386" style="stop-color:#BFBEBE"/>
			<stop  offset="0.9455" style="stop-color:#B0AFAF"/>
			<stop  offset="1" style="stop-color:#A6A5A5"/>
		</linearGradient>
		<path fill="url(#SVGID_8_)" d="M239.163,38.194l-9.451,6.354l6.221,8.598h-9.714l-3.088-4.178l-6.269,4.178h-7.489l11.223-7.608
			l-5.432-7.344h9.978l2.058,2.836l4.163-2.836H239.163z"/>
	</g>
	<g>
		<path fill="none" stroke="#000000" stroke-miterlimit="10" d="M44.797,29.553c0,4.339-3.262,8.063-9.786,11.17
			c-4.355,2.096-9.54,3.687-15.553,4.771l-2.919,7.652H7.805l8.734-22.56h8.662l-4.116,10.576c3.095-0.645,5.838-1.649,8.231-3.012
			c3.333-1.92,5.064-4.156,5.192-6.707c0.08-1.642-0.519-2.719-1.795-3.232c-0.766-0.308-2.146-0.461-4.139-0.461H4.12l3.733-5.541
			h24.646c3.605,0,6.357,0.41,8.255,1.231C43.449,24.598,44.797,26.636,44.797,29.553z"/>
		<path fill="none" stroke="#000000" stroke-miterlimit="10" d="M68.893,49.628c0,1.026-0.614,1.891-1.842,2.595
			c-1.085,0.616-2.218,0.923-3.398,0.923h-9.165c-2.425,0-3.637-0.923-3.637-2.771c0-0.469,0.104-0.975,0.311-1.517l2.704-7.146
			H48.77l-2.656,6.311c-0.447,1.07-1.412,1.605-2.896,1.605h-2.536l3.135-7.916c-0.99-0.205-1.791-0.663-2.405-1.374
			c-0.614-0.711-0.921-1.528-0.921-2.452c0-1.686,0.853-2.991,2.56-3.914c1.42-0.762,3.111-1.144,5.073-1.144H52l-2.01,5.365h13.232
			l-4.355,11.434H68.893z"/>
		<path fill="none" stroke="#000000" stroke-miterlimit="10" d="M109.618,38.194c-0.638,2.346-2.552,3.518-5.743,3.518H88.896
			c0.527,0.323,0.958,0.913,1.292,1.77c0.335,0.858,0.47,1.602,0.407,2.232c-0.224,2.448-1.396,4.369-3.518,5.761
			c-2.026,1.334-4.658,2.008-7.896,2.023c-3.765,0.029-6.66-0.652-8.686-2.045c-1.802-1.231-2.704-2.851-2.704-4.86
			c0-0.396,0.04-0.792,0.12-1.187c0.415-2.213,1.611-3.951,3.589-5.211c2.106-1.333,4.913-2.001,8.423-2.001H109.618z
			 M83.537,41.712h-5.479l-2.154,5.629c-0.112,0.293-0.167,0.572-0.167,0.836c0,1.261,1.276,1.891,3.829,1.891
			c0.303,0,0.566-0.007,0.79-0.022L83.537,41.712z"/>
		<path fill="none" stroke="#000000" stroke-miterlimit="10" d="M135.436,40.349l-2.105,5.585h-16.127l2.106-5.585H135.436z"/>
		<path fill="none" stroke="#000000" stroke-miterlimit="10" d="M196.38,49.628c-0.67,2.346-2.888,3.518-6.652,3.518h-8.59
			c-2.68,0-4.02-0.711-4.02-2.133c0-0.498,0.167-1.151,0.502-1.957l3.972-9.499L169.725,51.52c-1.276,1.305-2.672,1.957-4.188,1.957
			c-0.287,0-0.59-0.022-0.909-0.066c-1.818-0.19-2.728-1.026-2.728-2.506c0-0.572,0.144-1.188,0.431-1.847l5.886-13.962
			l-14.764,16.381c-0.989,1.114-2.44,1.671-4.355,1.671h-4.857l9.667-25.396h-13.28l3.613-5.541h15.983
			c2.202,0,3.302,0.74,3.302,2.221c0,0.572-0.152,1.261-0.455,2.067l-5.145,13.633l10.289-10.708
			c1.308-1.377,2.313-2.272,3.015-2.683c1.165-0.674,2.672-1.011,4.522-1.011c0.526,0,1.077,0.168,1.651,0.505
			c0.877,0.528,1.316,1.313,1.316,2.353c0,0.645-0.176,1.371-0.527,2.177l-4.642,11.082l9.212-8.509
			c1.308-1.202,2.178-1.927,2.608-2.177c0.75-0.396,1.826-0.586,3.23-0.572c0.558,0,1.148,0.19,1.771,0.572
			c0.957,0.572,1.436,1.407,1.436,2.506c0,0.631-0.16,1.327-0.479,2.089l-5.719,13.875H196.38z"/>
		<path fill="none" stroke="#000000" stroke-miterlimit="10" d="M214.565,49.628c-0.415,1.29-1.276,2.243-2.584,2.858
			c-0.941,0.44-1.962,0.66-3.063,0.66h-9.451c-2.282,0-3.422-0.879-3.422-2.639c0-0.498,0.112-1.033,0.335-1.605l4.164-10.708h8.686
			l-4.427,11.434H214.565z M212.843,29.179c0,1.466-0.619,2.712-1.854,3.738c-1.236,1.026-2.724,1.54-4.462,1.54
			c-1.771,0-3.274-0.513-4.511-1.54c-1.236-1.026-1.854-2.272-1.854-3.738c0-1.451,0.618-2.69,1.854-3.716
			c1.236-1.026,2.74-1.539,4.511-1.539c1.738,0,3.226,0.513,4.462,1.539C212.224,26.489,212.843,27.728,212.843,29.179z"/>
		<path fill="none" stroke="#000000" stroke-miterlimit="10" d="M239.163,38.194l-9.451,6.354l6.221,8.598h-9.714l-3.088-4.178
			l-6.269,4.178h-7.489l11.223-7.608l-5.432-7.344h9.978l2.058,2.836l4.163-2.836H239.163z"/>
	</g>
</g>
<g>
	<path fill="#C23235" d="M56.643,15.648h6.59l0.095-0.076l1.17,1.193c-0.053,0.076-0.105,0.151-0.19,0.212
		c-0.938,5.649-2.73,8.384-5.957,10.196c-0.19-0.483-0.58-1.193-0.844-1.586c2.857-1.526,4.64-4.154,5.188-8.097h-6.052V15.648z
		 M64.719,13.126c0.633,0,1.139,0.725,1.139,1.631c0,0.891-0.506,1.631-1.139,1.631c-0.622,0-1.139-0.74-1.139-1.631
		C63.58,13.821,64.118,13.126,64.719,13.126z M65.457,14.757c0-0.589-0.327-1.058-0.738-1.058c-0.4,0-0.738,0.468-0.738,1.058
		c0,0.589,0.337,1.057,0.738,1.057C65.151,15.814,65.457,15.316,65.457,14.757z"/>
	<path fill="#C23235" d="M74.387,15.905v10.182h-1.35v-0.861h-4.882v0.892h-1.318V15.905H74.387z M73.026,23.458v-5.786h-4.871
		v5.786H73.026z"/>
	<path fill="#C23235" d="M76.484,23.065c2.193,0.378,4.755,1.179,6.548,2.115l-0.59,1.934c-1.55-0.876-4.26-1.889-6.484-2.296
		L76.484,23.065z M77.254,14.153c1.782,0.257,4.217,0.937,5.599,1.677l-0.559,1.918c-1.498-0.861-3.711-1.495-5.504-1.797
		L77.254,14.153z M77.275,18.64c1.582,0.211,3.764,0.906,5.04,1.556l-0.443,1.903c-1.181-0.695-3.364-1.405-5.04-1.677L77.275,18.64
		z"/>
	<path fill="#C23235" d="M85.53,17.899c0.295,0.906,0.611,2.296,0.749,3.202l-1.023,0.408c-0.137-0.937-0.421-2.266-0.717-3.203
		L85.53,17.899z M91.667,18.247c-0.031,0.121-0.126,0.211-0.263,0.197c-0.865,4.456-2.499,7.084-4.903,8.474
		c-0.137-0.302-0.474-0.906-0.717-1.193c2.256-1.208,3.838-3.61,4.544-8.097L91.667,18.247z M88.05,17.265
		c0.221,0.922,0.421,2.372,0.506,3.324l-1.075,0.317c-0.084-0.997-0.295-2.372-0.517-3.338L88.05,17.265z"/>
	<path fill="#C23235" d="M100.565,17.023c-0.042,0.121-0.148,0.211-0.232,0.287c-1.191,4.94-2.836,7.916-5.683,9.97
		c-0.221-0.423-0.611-1.073-0.991-1.45c2.636-1.768,4.175-4.426,4.966-7.81h-3.1c-0.527,1.148-1.381,2.478-2.246,3.459
		c-0.253-0.363-0.728-0.921-1.086-1.239c1.371-1.496,2.667-3.882,3.311-6.405l1.677,0.559c-0.042,0.182-0.179,0.272-0.348,0.272
		c-0.168,0.544-0.379,1.073-0.559,1.571h3.005l0.19-0.136L100.565,17.023z"/>
	<path fill="#C23235" d="M108.378,15.603c-0.032,0.121-0.105,0.211-0.19,0.257c-0.59,1.949-1.139,3.354-1.972,5
		c1.033,1.208,2.583,3.217,3.521,4.652l-1.17,1.48c-0.822-1.405-2.33-3.565-3.216-4.638c-0.991,1.602-2.362,3.444-3.732,4.623
		c-0.211-0.408-0.675-1.103-0.98-1.45c2.625-2.039,4.766-5.665,5.715-8.822h-4.755v-1.813h5.514l0.222-0.105L108.378,15.603z"/>
</g>
</svg>
